<svg width="93" height="73" viewBox="0 0 93 73" fill="none" xmlns="http://www.w3.org/2000/svg">
<path d="M65.2539 52.2571L92.9201 26.0161L75.6633 7.8826L65.2539 52.2571ZM86.6636 25.8557L72.94 38.87L78.1028 16.8611L86.6636 25.8557Z" fill="#E7CD92"/>
<path d="M72.9178 6.02547L72.8198 6.00161L48.3031 0.269806L48.2129 0.651816L63.2133 47.3964L72.9178 6.02547ZM54.6727 6.29809L67.5981 9.31921L62.5489 30.8419L54.6727 6.29809Z" fill="#E7CD92"/>
<path d="M20.6641 7.67044L21.5465 10.421L60.5364 49.3456L60.5611 49.271L44.7399 -0.0309448L20.6641 7.67044ZM27.5077 10.1217L41.8747 5.52769L50.8157 33.3936L27.5077 10.1217Z" fill="#E7CD92"/>
<path d="M62.4333 55.2407L62.566 55.1056L62.4969 55.0366L17.8756 10.4898L17.833 10.533L0 28.3363L44.6902 72.9521L62.4333 55.2407ZM17.8756 16.739L56.3064 55.1056L44.6902 66.7031L6.25869 28.3363L17.8756 16.739Z" fill="#E7CD92"/>
<path d="M44.8284 51.5151C46.9674 51.5151 48.7015 53.247 48.7015 55.3817C48.7015 57.5164 46.9674 59.2483 44.8284 59.2483C42.6892 59.2483 40.9551 57.5164 40.9551 55.3817C40.9551 53.247 42.6892 51.5151 44.8284 51.5151Z" fill="#E7CD92"/>
</svg>
