<svg width="51" height="50" viewBox="0 0 51 50" fill="none" xmlns="http://www.w3.org/2000/svg">
<path d="M43.1738 7.32621C33.4059 -2.44163 17.5949 -2.44251 7.82621 7.32621C-1.94163 17.0941 -1.94251 32.9051 7.82621 42.6738C17.594 52.4416 33.4051 52.4425 43.1738 42.6738C52.9417 32.9059 52.9425 17.0949 43.1738 7.32621ZM25.5 40.6215C22.9566 40.6215 20.4923 40.0152 18.2731 38.8534L39.3534 17.7731C44.7265 28.036 37.2961 40.6215 25.5 40.6215ZM25.5 9.37849C28.0434 9.37849 30.5077 9.9848 32.7269 11.1466L11.6466 32.2269C6.27363 21.964 13.704 9.37849 25.5 9.37849Z" fill="#B79F68"/>
<path d="M43.1734 7.32641C38.0203 2.17326 31.0711 -0.389837 23.9375 0.0536189C36.9722 0.852074 47.3698 11.6657 47.3698 25.0002C47.3698 38.3233 36.9849 49.1475 23.9375 49.9468C31.0527 50.3888 38.0069 47.8405 43.1734 42.674C52.9414 32.9062 52.9422 17.0951 43.1734 7.32641Z" fill="#2D2827"/>
</svg>
