<svg width="50" height="50" viewBox="0 0 50 50" fill="none" xmlns="http://www.w3.org/2000/svg">
<g clip-path="url(#clip0_238_329)">
<path d="M25.0977 0C11.3574 0 0 11.1621 0 24.9023C0 38.6426 11.3574 50 25.0977 50C38.8379 50 50 38.6426 50 24.9023C50 11.1621 38.8379 0 25.0977 0Z" fill="#B79F68"/>
<path d="M50 24.9023C50 38.6426 38.8379 50 25.0977 50V0C38.8379 0 50 11.1621 50 24.9023Z" fill="#2D2827"/>
<path d="M39.5991 18.4276L25.0972 32.959L24.0719 33.9843C22.8999 35.1269 21.0542 35.1269 19.9116 33.9843L10.3999 24.6386C9.25732 23.496 9.25732 21.6504 10.3999 20.5078C11.4839 19.4238 13.4469 19.4238 14.5309 20.5078L21.9917 27.744L25.0972 24.6386L35.4682 14.2969C36.5522 13.2129 38.5151 13.2129 39.5991 14.2969C40.7125 15.4102 40.7709 17.2851 39.5991 18.4276Z" fill="#F5F7FF"/>
<path d="M39.5996 18.4276L25.0977 32.959V24.6386L35.4687 14.2969C36.5526 13.2129 38.5156 13.2129 39.5996 14.2969C40.713 15.4102 40.7714 17.2851 39.5996 18.4276Z" fill="#E9E9E9"/>
</g>
<defs>
<clipPath id="clip0_238_329">
<rect width="50" height="50" fill="white"/>
</clipPath>
</defs>
</svg>
