<svg width="15" height="16" viewBox="0 0 15 16" fill="none" xmlns="http://www.w3.org/2000/svg">
  <path fill-rule="evenodd" clip-rule="evenodd" d="M7.50031 9.41391L13.1573 15.0709C13.3459 15.2531 13.5985 15.3539 13.8607 15.3516C14.1229 15.3493 14.3737 15.2441 14.5591 15.0587C14.7445 14.8733 14.8497 14.6225 14.852 14.3603C14.8543 14.0981 14.7535 13.8455 14.5713 13.6569L8.91431 7.99991L14.5713 2.34291C14.7535 2.1543 14.8543 1.9017 14.852 1.6395C14.8497 1.37731 14.7445 1.1265 14.5591 0.941087C14.3737 0.755679 14.1229 0.65051 13.8607 0.648231C13.5985 0.645953 13.3459 0.746747 13.1573 0.928905L7.50031 6.58591L1.84331 0.928905C1.65386 0.75125 1.40272 0.654271 1.14304 0.658487C0.883359 0.662704 0.635504 0.767787 0.451921 0.951499C0.268338 1.13521 0.163431 1.38314 0.159398 1.64283C0.155365 1.90251 0.252522 2.15358 0.430311 2.34291L6.08631 7.99991L0.429311 13.6569C0.333801 13.7492 0.257619 13.8595 0.20521 13.9815C0.152801 14.1035 0.125215 14.2347 0.124061 14.3675C0.122907 14.5003 0.148209 14.632 0.19849 14.7549C0.248771 14.8778 0.323024 14.9894 0.416916 15.0833C0.510809 15.1772 0.622461 15.2514 0.745358 15.3017C0.868254 15.352 0.999933 15.3773 1.13271 15.3762C1.26549 15.375 1.39671 15.3474 1.51872 15.295C1.64072 15.2426 1.75106 15.1664 1.84331 15.0709L7.50031 9.41391Z" fill="#FFECC3" />
</svg>