<svg width="81" height="67" viewBox="0 0 81 67" fill="none" xmlns="http://www.w3.org/2000/svg">
<path d="M79.65 63.875H1.35C0.604462 63.875 0 64.4795 0 65.225C0 65.9705 0.604462 66.575 1.35 66.575H79.65C80.3955 66.575 81 65.9705 81 65.225C81 64.4795 80.3955 63.875 79.65 63.875Z" fill="#E7CD92"/>
<path d="M17.55 51.725C15.3132 51.725 13.5 53.5382 13.5 55.775C13.5 58.0118 15.3132 59.825 17.55 59.825C19.7868 59.825 21.6 58.0118 21.6 55.775C21.6 53.5382 19.7868 51.725 17.55 51.725ZM17.55 57.125C16.8045 57.125 16.2 56.5205 16.2 55.775C16.2 55.0294 16.8045 54.425 17.55 54.425C18.2955 54.425 18.9 55.0294 18.9 55.775C18.9 56.5205 18.2955 57.125 17.55 57.125Z" fill="#E7CD92"/>
<path d="M66.1496 51.725C63.9128 51.725 62.0996 53.5382 62.0996 55.775C62.0996 58.0118 63.9128 59.825 66.1496 59.825C68.3864 59.825 70.1996 58.0118 70.1996 55.775C70.1996 53.5382 68.3864 51.725 66.1496 51.725ZM66.1496 57.125C65.4041 57.125 64.7996 56.5205 64.7996 55.775C64.7996 55.0294 65.4041 54.425 66.1496 54.425C66.8951 54.425 67.4996 55.0294 67.4996 55.775C67.4996 56.5205 66.8951 57.125 66.1496 57.125Z" fill="#E7CD92"/>
<path d="M80.325 24.9032L61.425 14.1032C61.2195 13.9856 60.9868 13.9241 60.75 13.925H54V1.77499C54 1.02945 53.3955 0.424988 52.65 0.424988H1.35C0.604462 0.424988 0 1.02945 0 1.77499V55.775C0 56.5205 0.604462 57.125 1.35 57.125H9.5715C10.3127 61.5314 14.4855 64.5027 18.8919 63.7616C22.2924 63.1897 24.9566 60.5255 25.5285 57.125H58.1715C58.9127 61.5314 63.0855 64.5027 67.4919 63.7616C70.8924 63.1897 73.5566 60.5255 74.1285 57.125H79.65C80.3955 57.125 81 56.5205 81 55.775V26.075C81.001 25.5917 80.7435 25.1448 80.325 24.9032ZM17.55 61.175C14.5677 61.175 12.15 58.7573 12.15 55.775C12.15 52.7927 14.5677 50.375 17.55 50.375C20.5323 50.375 22.95 52.7927 22.95 55.775C22.95 58.7573 20.5323 61.175 17.55 61.175ZM51.3 54.425H25.538C25.538 54.3939 25.5204 54.3656 25.5137 54.3345C25.4401 53.928 25.3353 53.5276 25.2005 53.1371C25.1761 53.0669 25.1492 53.0021 25.1235 52.9265C24.9797 52.5429 24.8074 52.1705 24.6078 51.8127C24.5781 51.7614 24.5457 51.7128 24.516 51.6615C24.301 51.2943 24.0578 50.9445 23.7884 50.6153L23.7654 50.5896C23.4922 50.2651 23.1938 49.9627 22.8731 49.6851C22.8366 49.6527 22.8042 49.619 22.7677 49.5893C22.4522 49.3247 22.1167 49.0847 21.7647 48.8711C21.7053 48.8346 21.6472 48.7982 21.5865 48.7631C21.2338 48.5589 20.8659 48.3821 20.4862 48.2339L20.2851 48.1596C19.8894 48.0164 19.4832 47.904 19.0701 47.8235C19.0161 47.8127 18.9621 47.8073 18.9081 47.7978C18.0092 47.634 17.0881 47.634 16.1892 47.7978C16.1352 47.8073 16.0812 47.8127 16.0272 47.8235C15.6141 47.904 15.2079 48.0164 14.8122 48.1596L14.6111 48.2339C14.2314 48.3821 13.8635 48.5589 13.5108 48.7631C13.4501 48.7982 13.392 48.8346 13.3326 48.8711C12.9806 49.0847 12.6451 49.3249 12.3296 49.5893C12.2931 49.619 12.2607 49.6527 12.2243 49.6851C11.9035 49.9627 11.6051 50.2651 11.3319 50.5896L11.309 50.6153C11.0391 50.9447 10.7958 51.295 10.5813 51.6629C10.5516 51.7128 10.5192 51.7614 10.4909 51.8127C10.29 52.1702 10.1172 52.5424 9.9738 52.9265C9.94815 52.9967 9.92115 53.0615 9.89685 53.1371C9.76202 53.5276 9.65723 53.928 9.58365 54.3345C9.5769 54.3656 9.56475 54.3939 9.55935 54.425H2.7V3.12499H51.3V54.425ZM54 16.625H60.3909L78.3 26.858V36.875H54V16.625ZM66.15 61.175C63.1677 61.175 60.75 58.7573 60.75 55.775C60.75 52.7927 63.1677 50.375 66.15 50.375C69.1323 50.375 71.55 52.7927 71.55 55.775C71.55 58.7573 69.1323 61.175 66.15 61.175ZM78.3 54.425H74.138C74.138 54.3939 74.1204 54.3656 74.1136 54.3345C74.0401 53.928 73.9353 53.5276 73.8005 53.1371C73.7762 53.0669 73.7492 53.0021 73.7235 52.9265C73.5797 52.5429 73.4074 52.1705 73.2078 51.8127C73.1781 51.7614 73.1457 51.7128 73.116 51.6615C72.901 51.2943 72.6578 50.9445 72.3884 50.6153L72.3654 50.5896C72.0922 50.2651 71.7938 49.9627 71.4731 49.6851C71.4366 49.6527 71.4042 49.619 71.3678 49.5893C71.0522 49.3247 70.7167 49.0847 70.3647 48.8711C70.3053 48.8346 70.2473 48.7982 70.1865 48.7631C69.8338 48.5589 69.4659 48.3821 69.0863 48.2339L68.8851 48.1596C68.4894 48.0164 68.0832 47.904 67.6701 47.8235C67.6161 47.8127 67.5621 47.8073 67.5081 47.7978C66.6092 47.634 65.6881 47.634 64.7892 47.7978C64.7352 47.8073 64.6812 47.8127 64.6272 47.8235C64.2141 47.904 63.8079 48.0164 63.4122 48.1596L63.2111 48.2339C62.8314 48.3821 62.4635 48.5589 62.1108 48.7631C62.05 48.7982 61.992 48.8346 61.9326 48.8711C61.5806 49.0847 61.2451 49.3249 60.9296 49.5893C60.8931 49.619 60.8607 49.6527 60.8243 49.6851C60.5035 49.9627 60.2051 50.2651 59.9319 50.5896L59.909 50.6153C59.6391 50.9447 59.3958 51.295 59.1813 51.6629C59.1516 51.7128 59.1192 51.7614 59.0909 51.8127C58.89 52.1702 58.7172 52.5424 58.5738 52.9265C58.5482 52.9967 58.5212 53.0615 58.4969 53.1371C58.362 53.5276 58.2572 53.928 58.1837 54.3345C58.1769 54.3656 58.1648 54.3939 58.1594 54.425H54V39.575H78.3V54.425Z" fill="#E7CD92"/>
<path d="M74.9242 28.0365L59.9851 19.5032C59.7796 19.3856 59.5469 19.3241 59.3101 19.325H58.0492C57.3037 19.325 56.6992 19.9295 56.6992 20.675V32.825C56.6992 33.5705 57.3037 34.175 58.0492 34.175H74.2492C74.9948 34.175 75.5992 33.5705 75.5992 32.825V29.2083C75.6002 28.725 75.3427 28.2782 74.9242 28.0365ZM72.8992 31.475H59.3992V22.2788L72.8992 29.99V31.475Z" fill="#E7CD92"/>
</svg>
