<svg width="26" height="26" viewBox="0 0 26 26" fill="none" xmlns="http://www.w3.org/2000/svg">
<path d="M13 26C20.1797 26 26 20.1797 26 13C26 5.8203 20.1797 0 13 0C5.8203 0 0 5.8203 0 13C0 20.1797 5.8203 26 13 26Z" fill="url(#paint0_linear_238_509)"/>
<path d="M17.1669 14.6356C17.1291 14.5979 17.0843 14.568 17.035 14.5476C16.9857 14.5272 16.9329 14.5168 16.8795 14.5168C16.8262 14.5169 16.7733 14.5274 16.7241 14.5479C16.6748 14.5683 16.63 14.5983 16.5923 14.636L14.9822 16.2487C14.9729 16.2581 14.8929 16.2846 14.6984 16.2326C13.2816 15.8541 10.147 12.7245 9.76626 11.3081C9.71401 11.1137 9.74036 11.0339 9.74976 11.0244L11.3598 9.41172C11.3975 9.37397 11.4274 9.32916 11.4478 9.27985C11.4682 9.23055 11.4786 9.17771 11.4786 9.12436C11.4786 9.07101 11.468 9.01819 11.4475 8.96891C11.4271 8.91964 11.3971 8.87488 11.3594 8.83718L7.76518 5.24862C7.72742 5.21093 7.68261 5.18105 7.6333 5.16067C7.58399 5.1403 7.53115 5.12984 7.4778 5.12988C7.42445 5.12993 7.37163 5.14049 7.32236 5.16095C7.27309 5.18141 7.22833 5.21137 7.19064 5.24913L6.39418 6.04686C5.21327 7.22935 4.83749 9.05397 5.33575 11.1845C5.81817 13.2462 7.06846 15.3651 8.85702 17.1509C10.6456 18.9367 12.7666 20.1839 14.8289 20.6628C15.4034 20.8001 15.9917 20.8712 16.5824 20.8747C17.9555 20.8736 19.1236 20.439 19.965 19.5963L20.7615 18.7986C20.7992 18.7609 20.8291 18.7161 20.8495 18.6668C20.8698 18.6174 20.8803 18.5646 20.8803 18.5112C20.8802 18.4579 20.8697 18.4051 20.8492 18.3558C20.8287 18.3065 20.7988 18.2617 20.761 18.224L17.1669 14.6356ZM19.3901 19.0223C18.4151 19.999 16.8604 20.3005 15.0127 19.8714C13.0961 19.4264 11.1138 18.256 9.43116 16.5757C7.74847 14.8954 6.57497 12.9154 6.12692 10.9997C5.69498 9.15259 5.99408 7.59756 6.96918 6.62094L7.47857 6.11069L10.4978 9.12521L9.17476 10.4506C9.00211 10.6236 8.82843 10.9493 8.98179 11.5192C9.43954 13.2224 12.7853 16.5627 14.489 17.0179C15.059 17.1702 15.3846 16.996 15.5574 16.8231L16.8804 15.4977L19.8997 18.5122L19.3901 19.0223ZM11.6307 6.06011C11.5979 5.95748 11.6072 5.84602 11.6566 5.75026C11.706 5.65451 11.7914 5.58229 11.894 5.5495C13.0026 5.19541 14.2152 5.17027 15.4007 5.47694C16.6276 5.80487 17.7466 6.44986 18.6453 7.34712C19.5441 8.24438 20.1909 9.36233 20.5209 10.5887C20.8294 11.7738 20.8062 12.9864 20.4538 14.0954C20.438 14.1467 20.4123 14.1944 20.378 14.2357C20.3437 14.277 20.3015 14.3111 20.254 14.336C20.2064 14.361 20.1544 14.3762 20.1009 14.3809C20.0474 14.3856 19.9936 14.3796 19.9424 14.3634C19.8912 14.3471 19.8438 14.3209 19.8028 14.2862C19.7619 14.2515 19.7282 14.209 19.7038 14.1612C19.6793 14.1134 19.6646 14.0613 19.6604 14.0077C19.6562 13.9542 19.6627 13.9004 19.6795 13.8494C20.3127 11.8563 19.6815 9.52964 18.0714 7.92216C16.4614 6.31468 14.1335 5.68702 12.1416 6.32331C12.0389 6.3561 11.9275 6.34678 11.8317 6.2974C11.736 6.24802 11.6637 6.16263 11.631 6.06001L11.6307 6.06011ZM17.7749 13.2493C18.2729 11.9106 17.8787 10.3308 16.7709 9.22475C15.663 8.11873 14.0826 7.727 12.7448 8.227C12.6439 8.26471 12.5321 8.26078 12.434 8.21608C12.336 8.17137 12.2598 8.08956 12.222 7.98863C12.1843 7.8877 12.1883 7.77592 12.233 7.67789C12.2777 7.57986 12.3595 7.5036 12.4604 7.46589C14.0956 6.85494 16.0128 7.31959 17.3451 8.64965C18.6774 9.97971 19.145 11.8964 18.5366 13.5325C18.499 13.6335 18.4229 13.7154 18.3249 13.7603C18.2269 13.8052 18.1151 13.8093 18.0141 13.7717C17.9131 13.7341 17.8311 13.658 17.7863 13.56C17.7414 13.462 17.7373 13.3502 17.7749 13.2492L17.7749 13.2493ZM15.8639 12.6081C16.2139 11.9636 16.0518 11.1079 15.4704 10.5273C14.8891 9.94665 14.0326 9.78588 13.3889 10.137C13.2943 10.1886 13.1831 10.2005 13.0797 10.17C12.9763 10.1396 12.8893 10.0694 12.8377 9.97476C12.7862 9.88015 12.7743 9.76894 12.8047 9.66557C12.8352 9.56221 12.9054 9.47517 13 9.4236C13.958 8.90147 15.2099 9.11892 16.0446 9.95224C16.8792 10.7856 17.0985 12.0371 16.5778 12.9959C16.5263 13.0906 16.4394 13.1609 16.3361 13.1915C16.2328 13.2221 16.1216 13.2104 16.0269 13.159C15.9322 13.1076 15.8618 13.0207 15.8312 12.9174C15.8006 12.8141 15.8123 12.7028 15.8637 12.6081H15.8639Z" fill="#987521"/>
<defs>
<linearGradient id="paint0_linear_238_509" x1="13" y1="0" x2="13" y2="26" gradientUnits="userSpaceOnUse">
<stop stop-color="#FAE262"/>
<stop offset="0.195" stop-color="#FAE262"/>
<stop offset="0.7325" stop-color="#ECC335"/>
<stop offset="1" stop-color="#DEA407"/>
</linearGradient>
</defs>
</svg>
