<svg width="76" height="76" viewBox="0 0 76 76" fill="none" xmlns="http://www.w3.org/2000/svg">
<path d="M30.875 9.5C30.875 10.9092 31.2929 12.2867 32.0758 13.4584C32.8587 14.6301 33.9715 15.5434 35.2734 16.0826C36.5753 16.6219 38.0079 16.763 39.39 16.4881C40.7721 16.2132 42.0417 15.5346 43.0381 14.5381C44.0346 13.5417 44.7132 12.2721 44.9881 10.89C45.263 9.5079 45.1219 8.0753 44.5826 6.77338C44.0434 5.47146 43.1301 4.35868 41.9584 3.57578C40.7867 2.79287 39.4092 2.375 38 2.375C36.1103 2.375 34.2981 3.12567 32.9619 4.46186C31.6257 5.79806 30.875 7.61033 30.875 9.5ZM42.75 9.5C42.75 10.4395 42.4714 11.3578 41.9495 12.139C41.4275 12.9201 40.6857 13.5289 39.8177 13.8884C38.9498 14.2479 37.9947 14.342 37.0733 14.1587C36.1519 13.9755 35.3055 13.5231 34.6412 12.8588C33.9769 12.1945 33.5245 11.3481 33.3413 10.4267C33.158 9.50527 33.2521 8.5502 33.6116 7.68225C33.9711 6.8143 34.5799 6.07246 35.361 5.55052C36.1422 5.02858 37.0605 4.75 38 4.75C39.2598 4.75 40.468 5.25044 41.3588 6.14124C42.2496 7.03204 42.75 8.24022 42.75 9.5Z" fill="#E7CD92"/>
<path d="M8.3125 8.3125C8.3125 9.48683 8.66073 10.6348 9.31315 11.6112C9.96557 12.5876 10.8929 13.3486 11.9778 13.798C13.0628 14.2474 14.2566 14.365 15.4083 14.1359C16.5601 13.9068 17.6181 13.3413 18.4484 12.5109C19.2788 11.6806 19.8443 10.6226 20.0734 9.47085C20.3025 8.31909 20.1849 7.12525 19.7355 6.04032C19.2861 4.95538 18.5251 4.02807 17.5487 3.37565C16.5723 2.72323 15.4243 2.375 14.25 2.375C12.6753 2.375 11.1651 3.00056 10.0516 4.11405C8.93806 5.22755 8.3125 6.73778 8.3125 8.3125ZM17.8125 8.3125C17.8125 9.0171 17.6036 9.70587 17.2121 10.2917C16.8207 10.8776 16.2643 11.3342 15.6133 11.6038C14.9623 11.8735 14.246 11.944 13.555 11.8065C12.8639 11.6691 12.2292 11.3298 11.7309 10.8316C11.2327 10.3333 10.8934 9.69857 10.756 9.00751C10.6185 8.31645 10.689 7.60015 10.9587 6.94919C11.2283 6.29823 11.6849 5.74184 12.2708 5.35039C12.8566 4.95894 13.5454 4.75 14.25 4.75C15.1948 4.75 16.101 5.12533 16.7691 5.79343C17.4372 6.46153 17.8125 7.36767 17.8125 8.3125Z" fill="#E7CD92"/>
<path d="M55.8125 8.3125C55.8125 9.48683 56.1607 10.6348 56.8131 11.6112C57.4656 12.5876 58.3929 13.3486 59.4778 13.798C60.5628 14.2474 61.7566 14.365 62.9083 14.1359C64.0601 13.9068 65.1181 13.3413 65.9484 12.5109C66.7788 11.6806 67.3443 10.6226 67.5734 9.47085C67.8025 8.31909 67.6849 7.12525 67.2355 6.04032C66.7861 4.95538 66.0251 4.02807 65.0487 3.37565C64.0723 2.72323 62.9243 2.375 61.75 2.375C60.1753 2.375 58.6651 3.00056 57.5516 4.11405C56.4381 5.22755 55.8125 6.73778 55.8125 8.3125ZM65.3125 8.3125C65.3125 9.0171 65.1036 9.70587 64.7121 10.2917C64.3207 10.8776 63.7643 11.3342 63.1133 11.6038C62.4623 11.8735 61.746 11.944 61.055 11.8065C60.3639 11.6691 59.7292 11.3298 59.2309 10.8316C58.7327 10.3333 58.3934 9.69857 58.256 9.00751C58.1185 8.31645 58.189 7.60015 58.4587 6.94919C58.7283 6.29823 59.1849 5.74184 59.7708 5.35039C60.3566 4.95894 61.0454 4.75 61.75 4.75C62.6948 4.75 63.601 5.12533 64.2691 5.79343C64.9372 6.46153 65.3125 7.36767 65.3125 8.3125Z" fill="#E7CD92"/>
<path d="M65.0519 14.25C64.8371 14.1984 64.6122 14.2078 64.4024 14.277C64.1926 14.3462 64.0063 14.4726 63.8644 14.6419L61.7507 17.1594L59.6725 14.6775C59.5306 14.5082 59.3443 14.3818 59.1346 14.3126C58.9248 14.2434 58.6998 14.234 58.485 14.2856C56.4199 14.8571 54.5518 15.9859 53.0856 17.5485C51.6194 19.1111 50.6116 21.0471 50.1725 23.1444C49.3136 21.5147 48.1139 20.0889 46.655 18.964C45.1961 17.8391 43.5121 17.0414 41.7175 16.625C41.4683 16.561 41.205 16.5796 40.9673 16.6781C40.7296 16.7766 40.5303 16.9497 40.3994 17.1713L38.0244 21.2681L35.6494 17.1713C35.5163 16.94 35.3091 16.7604 35.0614 16.6613C34.8136 16.5622 34.5397 16.5494 34.2838 16.625C32.4946 17.0389 30.815 17.8319 29.3584 18.9504C27.9019 20.0689 26.7023 21.487 25.8407 23.1088C25.4017 21.0114 24.3938 19.0754 22.9276 17.5129C21.4614 15.9503 19.5933 14.8214 17.5282 14.25C17.3134 14.1984 17.0884 14.2078 16.8787 14.277C16.6689 14.3462 16.4826 14.4726 16.3407 14.6419L14.2507 17.1594L12.1725 14.6775C12.0306 14.5082 11.8443 14.3818 11.6346 14.3126C11.4248 14.2434 11.1998 14.234 10.985 14.2856C8.48748 14.9835 6.28996 16.4859 4.73334 18.56C3.17672 20.6341 2.34798 23.1638 2.37567 25.7569V34.0694C2.37567 37.6319 3.9313 39.0925 5.93817 40.8856V62.9375C5.91549 63.4415 6.0001 63.9445 6.18639 64.4133C6.37268 64.8821 6.65641 65.306 7.0188 65.6569C7.67427 66.23 8.52367 66.5315 9.3938 66.5H9.8213C10.2711 66.4882 10.7139 66.3856 11.123 66.1983C11.5321 66.011 11.8991 65.7429 12.202 65.4101C12.5048 65.0773 12.7372 64.6867 12.8852 64.2618C13.0332 63.8369 13.0938 63.3864 13.0632 62.9375V43.0113C13.0475 42.6658 13.16 42.3267 13.3793 42.0593C13.5985 41.7918 13.9089 41.6149 14.2507 41.5625C14.5925 41.6149 14.9029 41.7918 15.1221 42.0593C15.3413 42.3267 15.4539 42.6658 15.4382 43.0113V62.9375C15.4238 63.4344 15.5135 63.9289 15.7017 64.3891C15.8898 64.8492 16.1722 65.2649 16.5307 65.6094C16.9243 65.9482 17.3842 66.2012 17.881 66.3525C18.3778 66.5038 18.9007 66.55 19.4163 66.4881C19.8607 66.4754 20.2978 66.3717 20.7005 66.1835C21.1033 65.9953 21.4633 65.7266 21.7581 65.3939C22.053 65.0611 22.2766 64.6715 22.415 64.2491C22.5535 63.8266 22.6039 63.3802 22.5632 62.9375V40.9094C24.2494 39.3894 25.615 38.0831 26.0069 35.6013C26.1396 35.5715 26.2674 35.5236 26.3869 35.4588L28.5007 34.1763V68.875C28.5007 71.0125 29.7713 73.3994 32.0632 73.625H32.4313C33.5194 73.6088 34.5618 73.1851 35.3525 72.4375C35.7744 72.0513 36.1115 71.5816 36.3425 71.0583C36.5735 70.535 36.6933 69.9695 36.6944 69.3975V46.835C36.6944 45.8613 37.2763 45.0419 37.9532 45.0419C38.63 45.0419 39.2119 45.8613 39.2119 46.835V69.3975C39.213 69.9695 39.3329 70.535 39.5638 71.0583C39.7948 71.5816 40.1319 72.0513 40.5538 72.4375C41.0014 72.8642 41.5346 73.1908 42.1182 73.3956C42.7017 73.6003 43.3221 73.6785 43.9382 73.625C46.3132 73.4113 47.5007 71.0244 47.5007 68.875V34.1763L49.6144 35.4588C49.7339 35.5236 49.8618 35.5715 49.9944 35.6013C50.3863 38.0831 51.7519 39.3894 53.4382 40.9094V62.9375C53.4155 63.4415 53.5001 63.9445 53.6864 64.4133C53.8727 64.8821 54.1564 65.306 54.5188 65.6569C55.1743 66.23 56.0237 66.5315 56.8938 66.5H57.3213C57.7711 66.4882 58.2139 66.3856 58.623 66.1983C59.0321 66.011 59.3991 65.7429 59.702 65.4101C60.0048 65.0773 60.2372 64.6867 60.3852 64.2618C60.5332 63.8369 60.5938 63.3864 60.5632 62.9375V43.0113C60.5632 42.6963 60.6883 42.3943 60.911 42.1716C61.1337 41.9489 61.4357 41.8238 61.7507 41.8238C62.0656 41.8238 62.3677 41.9489 62.5904 42.1716C62.8131 42.3943 62.9382 42.6963 62.9382 43.0113V62.9375C62.9238 63.4344 63.0135 63.9289 63.2017 64.3891C63.3898 64.8492 63.6722 65.2649 64.0307 65.6094C64.4243 65.9482 64.8842 66.2012 65.381 66.3525C65.8778 66.5038 66.4007 66.55 66.9163 66.4881C67.3607 66.4754 67.7978 66.3717 68.2005 66.1835C68.6033 65.9953 68.9633 65.7266 69.2581 65.3939C69.553 65.0611 69.7766 64.6715 69.915 64.2491C70.0535 63.8266 70.1039 63.3802 70.0632 62.9375V40.9094C72.07 39.1044 73.6257 37.62 73.6257 34.0931V25.7806C73.6687 23.1821 72.8511 20.6423 71.3004 18.5567C69.7497 16.4712 67.5528 14.957 65.0519 14.25ZM20.1882 62.9375C20.1882 63.8756 19.8913 64.0538 19.2025 64.125C19.016 64.1587 18.8245 64.1529 18.6404 64.1079C18.4563 64.0629 18.2837 63.9797 18.1338 63.8638C18.0175 63.7411 17.9288 63.595 17.8735 63.4353C17.8182 63.2755 17.7976 63.1058 17.8132 62.9375V43.0113C17.836 42.035 17.4761 41.0885 16.8104 40.3741C16.1448 39.6596 15.2261 39.2337 14.2507 39.1875C13.2752 39.2337 12.3566 39.6596 11.6909 40.3741C11.0253 41.0885 10.6654 42.035 10.6882 43.0113V62.9375C10.6882 63.745 10.4032 64.0419 9.5838 64.125C9.41731 64.1552 9.24647 64.1519 9.0813 64.1152C8.91612 64.0785 8.75994 64.0091 8.62192 63.9113C8.39691 63.6388 8.28624 63.2898 8.31317 62.9375V24.9375H5.93817V37.5963C5.09691 36.6302 4.67025 35.3716 4.75067 34.0931V25.7806C4.73407 23.8439 5.3098 21.9484 6.40072 20.3481C7.49164 18.7478 9.04562 17.5192 10.8544 16.8269L13.3363 19.7838C13.4477 19.9182 13.5874 20.0265 13.7455 20.1008C13.9035 20.1751 14.076 20.2136 14.2507 20.2136C14.4253 20.2136 14.5978 20.1751 14.7559 20.1008C14.9139 20.0265 15.0536 19.9182 15.165 19.7838L17.6469 16.8269C19.2347 17.4209 20.6314 18.4351 21.6876 19.7611C22.7438 21.0871 23.42 22.6752 23.6438 24.3556L19.1788 21.1731C18.4875 20.5432 17.5824 20.2 16.6472 20.2132C15.712 20.2265 14.817 20.5951 14.1438 21.2444C13.803 21.5668 13.5315 21.9552 13.3457 22.386C13.1599 22.8168 13.0638 23.2809 13.0632 23.75C13.0724 24.24 13.1826 24.7228 13.387 25.1682C13.5913 25.6137 13.8853 26.0121 14.2507 26.3388L20.1882 31.3263V62.9375ZM22.5632 33.3094L23.7507 34.295C23.7906 35.5066 23.3658 36.6877 22.5632 37.5963V33.3094ZM46.9307 31.0413C46.7501 30.937 46.5454 30.8822 46.3369 30.8822C46.1285 30.8822 45.9237 30.937 45.7432 31.0413C45.5593 31.1418 45.4053 31.2893 45.2968 31.4687C45.1884 31.6481 45.1293 31.8529 45.1257 32.0625V68.875C45.1257 69.9556 44.5438 71.1669 43.6888 71.25C43.4211 71.2772 43.1507 71.2479 42.895 71.164C42.6393 71.0802 42.404 70.9436 42.2044 70.7631C42.0244 70.5991 41.8806 70.3992 41.7825 70.1763C41.6843 69.9533 41.6339 69.7123 41.6344 69.4688V46.9063C41.6965 45.8749 41.3501 44.8606 40.67 44.0828C39.99 43.305 39.0311 42.8262 38.0007 42.75C36.9681 42.8261 36.0073 43.3066 35.3269 44.087C34.6465 44.8675 34.3016 45.8848 34.3669 46.9181V69.4806C34.3675 69.7242 34.317 69.9652 34.2189 70.1881C34.1207 70.4111 33.977 70.611 33.7969 70.775C33.5991 70.9545 33.3659 71.0906 33.1123 71.1745C32.8586 71.2583 32.5903 71.2881 32.3244 71.2619C31.4575 71.1906 30.8757 69.9794 30.8757 68.8869V32.0625C30.8753 31.8521 30.819 31.6455 30.7126 31.464C30.6062 31.2825 30.4535 31.1325 30.27 31.0294C30.0926 30.9288 29.8922 30.8756 29.6882 30.875C29.4715 30.8769 29.259 30.9341 29.0707 31.0413L25.8763 32.9888L15.7944 24.5813C15.5768 24.3593 15.455 24.0608 15.455 23.75C15.455 23.4392 15.5768 23.1407 15.7944 22.9188C16.0388 22.6892 16.3616 22.5613 16.6969 22.5613C17.0323 22.5613 17.355 22.6892 17.5994 22.9188L17.7419 23.0375L25.0807 28.2744C25.2505 28.3972 25.4499 28.4729 25.6584 28.4938C25.867 28.5146 26.0774 28.4799 26.2682 28.3931C26.4561 28.3106 26.6194 28.1808 26.7421 28.0164C26.8649 27.852 26.943 27.6586 26.9688 27.455C27.2237 25.5363 28.034 23.734 29.2999 22.2698C30.5658 20.8055 32.2321 19.7433 34.0938 19.2138L37.0507 24.2488C37.1558 24.426 37.3053 24.5728 37.4843 24.6747C37.6634 24.7767 37.8659 24.8303 38.0719 24.8303C38.278 24.8303 38.4805 24.7767 38.6595 24.6747C38.8386 24.5728 38.988 24.426 39.0932 24.2488L42.05 19.2138C43.9118 19.7433 45.5781 20.8055 46.844 22.2698C48.1099 23.734 48.9201 25.5363 49.175 27.455C49.2009 27.6584 49.279 27.8517 49.4017 28.016C49.5244 28.1803 49.6876 28.31 49.8753 28.3925C50.063 28.475 50.2689 28.5075 50.4729 28.4868C50.6769 28.4661 50.8721 28.3929 51.0394 28.2744L58.3782 23.0375L58.5207 22.9188C58.7651 22.6892 59.0878 22.5613 59.4232 22.5613C59.7585 22.5613 60.0813 22.6892 60.3257 22.9188C60.5494 23.138 60.6775 23.4368 60.6819 23.75C60.6819 24.033 60.5809 24.3068 60.3969 24.5219L50.2438 32.9769L46.9307 31.0413ZM52.2507 34.295L53.4382 33.3094V37.5963C52.6356 36.6877 52.2107 35.5066 52.2507 34.295ZM71.2507 34.0931C71.2971 34.7268 71.2159 35.3633 71.0119 35.965C70.808 36.5668 70.4853 37.1214 70.0632 37.5963V24.9375H67.6882V62.9375C67.6882 63.8756 67.3913 64.0538 66.7025 64.125C66.516 64.158 66.3247 64.1518 66.1407 64.1068C65.9567 64.0618 65.7841 63.979 65.6338 63.8638C65.5175 63.7411 65.4288 63.595 65.3735 63.4353C65.3182 63.2755 65.2976 63.1058 65.3132 62.9375V43.0113C65.3132 42.0664 64.9378 41.1603 64.2697 40.4922C63.6016 39.8241 62.6955 39.4488 61.7507 39.4488C60.8058 39.4488 59.8997 39.8241 59.2316 40.4922C58.5635 41.1603 58.1882 42.0664 58.1882 43.0113V62.9375C58.1882 63.745 57.9032 64.0419 57.0838 64.125C56.9173 64.1552 56.7465 64.1519 56.5813 64.1152C56.4161 64.0785 56.2599 64.0091 56.1219 63.9113C55.8969 63.6388 55.7862 63.2898 55.8132 62.9375V31.3263L61.8575 26.2794C62.1988 25.9524 62.4703 25.5597 62.6559 25.1251C62.8414 24.6904 62.937 24.2226 62.937 23.75C62.937 23.2774 62.8414 22.8097 62.6559 22.375C62.4703 21.9403 62.1988 21.5476 61.8575 21.2206C61.1844 20.5714 60.2893 20.2027 59.3541 20.1895C58.419 20.1762 57.5138 20.5194 56.8225 21.1494L52.3575 24.3319C52.5762 22.6581 53.2435 21.0746 54.2887 19.7492C55.334 18.4238 56.7183 17.4058 58.295 16.8031L60.7769 19.76C60.8883 19.8945 61.0281 20.0027 61.1861 20.077C61.3442 20.1513 61.5167 20.1898 61.6913 20.1898C61.8659 20.1898 62.0384 20.1513 62.1965 20.077C62.3545 20.0027 62.4942 19.8945 62.6057 19.76L65.0875 16.8031C66.9074 17.4858 68.4741 18.7104 69.5762 20.3115C70.6783 21.9126 71.2627 23.8132 71.2507 25.7569V34.0931Z" fill="#E7CD92"/>
</svg>
