<svg width="42" height="42" viewBox="0 0 42 42" fill="none" xmlns="http://www.w3.org/2000/svg">
<g clip-path="url(#clip0_238_154)">
<path d="M21 42C32.598 42 42 32.598 42 21C42 9.40202 32.598 0 21 0C9.40202 0 0 9.40202 0 21C0 32.598 9.40202 42 21 42Z" fill="#75B73B"/>
<path d="M22.1813 41.9662C32.8387 41.3752 41.3757 32.8383 41.9667 22.1808L30.5061 10.7202L22.3961 26.4104L10.7207 30.5057L22.1813 41.9662Z" fill="#52891D"/>
<path d="M31.5454 12.2759L30.554 10.7888C29.5411 9.26938 27.3913 9.05642 26.1 10.3477L23.1371 13.3106C21.7406 14.7071 22.1227 17.0617 23.8892 17.945L24.2982 18.1495C25.0518 18.5264 25.2148 19.5307 24.6191 20.1265L20.1265 24.6191C19.5307 25.2149 18.5262 25.0519 18.1496 24.2982L17.9451 23.8891C17.0617 22.1224 14.7072 21.7405 13.3106 23.1371L10.3477 26.1C9.05648 27.3912 9.26927 29.541 10.7888 30.5539L12.276 31.5454C14.5284 33.0469 17.5275 32.7499 19.4417 30.8359L30.8359 19.4418C32.75 17.5275 33.0469 14.5284 31.5454 12.2759Z" fill="#D1D1D1"/>
<path d="M20.1265 24.6196C19.5307 25.2154 18.5262 25.0523 18.1496 24.2987L17.9451 23.8896C17.0617 22.1229 14.7072 21.741 13.3106 23.1376L10.3477 26.1005C9.05648 27.3917 9.26927 29.5415 10.7888 30.5544L12.276 31.5458C14.5284 33.0473 17.5275 32.7503 19.4417 30.8363L24.8562 25.422L22.0901 22.6559L20.1265 24.6196Z" fill="#D1D1D1"/>
<path d="M26.1015 10.3483L23.1386 13.3112C21.8489 14.6009 22.077 16.7064 23.5104 17.717L30.5067 10.7206C29.4752 9.26462 27.3727 9.07701 26.1015 10.3483Z" fill="white"/>
<path d="M17.7159 23.5094C16.7053 22.076 14.5998 21.848 13.3101 23.1377L10.3473 26.1005C9.0761 27.3717 9.26362 29.4742 10.7196 30.5057L17.7159 23.5094Z" fill="white"/>
</g>
<defs>
<clipPath id="clip0_238_154">
<rect width="42" height="42" fill="white"/>
</clipPath>
</defs>
</svg>
