<svg width="32" height="31" viewBox="0 0 32 31" fill="none" xmlns="http://www.w3.org/2000/svg">
<g clip-path="url(#clip0_238_263)">
<path d="M16 31C24.8366 31 32 24.0604 32 15.5C32 6.93959 24.8366 0 16 0C7.16344 0 0 6.93959 0 15.5C0 24.0604 7.16344 31 16 31Z" fill="#7AA5DA"/>
<path d="M31.996 15.1414L24.8935 8.27222L13.3242 21.9334L21.6545 30.0033C27.7006 27.7903 32.0008 22.132 32.0008 15.5C32.0008 15.3801 31.9988 15.2605 31.996 15.1414Z" fill="#5786B5"/>
<path d="M23.9826 8.08421C24.6204 7.84312 25.2798 8.3838 25.1398 9.03298L22.2791 22.2795C22.1455 22.9005 21.3924 23.1802 20.8644 22.8045L16.5461 19.7337L14.3449 21.9111C13.9581 22.2931 13.2911 22.1376 13.1252 21.6282L11.5371 16.7444L7.28007 15.5263C6.72088 15.3665 6.68857 14.613 7.23051 14.4074L23.9826 8.08421ZM21.8826 11.0235C22.069 10.8637 21.8524 10.582 21.6413 10.7093L12.4528 16.2298C12.2912 16.3268 12.2169 16.5178 12.2739 16.6942L13.527 22.0248C13.5518 22.1062 13.6724 22.0947 13.6833 22.0102L13.9634 17.9478C13.9741 17.8476 14.0237 17.7558 14.1013 17.689L21.8826 11.0235Z" fill="white"/>
<path d="M21.6402 10.7093C21.8514 10.582 22.068 10.8637 21.8816 11.0235L14.1004 17.689C14.0228 17.7558 13.9732 17.8476 13.9624 17.9479L13.6823 22.0102C13.6716 22.0947 13.5509 22.1062 13.5261 22.0248L12.273 16.6942C12.2159 16.5179 12.2902 16.3268 12.4519 16.2298L21.6402 10.7093Z" fill="#9EC2E5"/>
<path d="M13.5723 22.0801C13.3698 22.0102 13.1984 21.8536 13.1252 21.6281L11.5371 16.7443L7.28007 15.5262C6.72088 15.3665 6.68857 14.6129 7.23051 14.4073L23.9825 8.08421C24.3941 7.92867 24.8154 8.09881 25.0233 8.41407C24.9845 8.35667 24.9382 8.30345 24.8865 8.25647L13.5216 17.2444V17.6378L13.4591 17.594L13.5216 20.0719V22.0593C13.5378 22.0666 13.555 22.0728 13.5723 22.0781V22.0801H13.5723Z" fill="white"/>
<path d="M25.1579 8.81066C25.1611 8.88162 25.1557 8.95675 25.1395 9.03298L22.2789 22.2795C22.1453 22.9005 21.3922 23.1802 20.8642 22.8045L16.5459 19.7337L13.5215 17.6378V17.2444L24.8864 8.25641C24.938 8.30339 24.9844 8.35661 25.0232 8.41401C25.0307 8.42655 25.0382 8.43799 25.0458 8.44949C25.0522 8.46203 25.0598 8.47456 25.0663 8.486C25.0727 8.49854 25.0792 8.51107 25.0846 8.5236C25.091 8.53716 25.0965 8.5497 25.1019 8.56326C25.1062 8.57476 25.1115 8.58724 25.1159 8.60086C25.1299 8.64155 25.1406 8.68333 25.1482 8.72716C25.1525 8.75429 25.1557 8.78147 25.1579 8.81066Z" fill="#D1D1D1"/>
<path d="M16.5458 19.7337L14.3446 21.911C14.3263 21.9288 14.3069 21.9465 14.2875 21.9622C14.2681 21.9779 14.2487 21.9914 14.2282 22.005C14.2272 22.006 14.2272 22.006 14.2272 22.006C14.1862 22.0321 14.1442 22.054 14.1 22.0718C14.0774 22.0801 14.0559 22.0885 14.0332 22.0937C13.9395 22.1208 13.8436 22.1282 13.7488 22.1188C13.724 22.1167 13.6992 22.1125 13.6755 22.1084C13.6723 22.1084 13.6691 22.1073 13.6659 22.1063C13.6422 22.1001 13.6184 22.0938 13.5947 22.0864C13.5872 22.0844 13.5797 22.0823 13.5721 22.0781L13.5215 20.072V17.6379L16.5458 19.7337Z" fill="#D1D1D1"/>
<path d="M14.2858 21.9622C14.2664 21.9778 14.247 21.9924 14.2266 22.006V22.005C14.2471 21.9914 14.2664 21.9778 14.2858 21.9622Z" fill="#DADDE0"/>
<path d="M14.229 22.0049V22.0074C14.229 22.0074 14.229 22.0049 14.2266 22.0074C14.2266 22.0074 14.2266 22.0074 14.229 22.0049Z" fill="#DADDE0"/>
<path d="M14.0996 22.0718C14.1438 22.0541 14.1858 22.0321 14.2267 22.006C14.1858 22.0321 14.1427 22.054 14.0996 22.0718Z" fill="#DADDE0"/>
<path d="M13.748 22.1196C13.8429 22.1293 13.9387 22.1217 14.0325 22.0937C13.9646 22.1153 13.8945 22.1249 13.8245 22.1249C13.803 22.1249 13.7814 22.1239 13.761 22.1217C13.7567 22.1218 13.7524 22.1218 13.748 22.1196Z" fill="#DADDE0"/>
<path d="M13.749 22.1189C13.7533 22.1211 13.7576 22.1211 13.7619 22.1211C13.7393 22.12 13.7188 22.1167 13.6973 22.1124C13.7145 22.1157 13.7317 22.1179 13.749 22.1189Z" fill="white"/>
<path d="M13.749 22.1191C13.7318 22.118 13.7145 22.1158 13.6973 22.1126C13.6898 22.1116 13.6823 22.1105 13.6758 22.1083C13.6995 22.1126 13.7242 22.117 13.749 22.1191Z" fill="#DADDE0"/>
<path d="M13.5957 22.0864C13.6194 22.094 13.6431 22.1004 13.6668 22.1069C13.6571 22.1048 13.6475 22.1026 13.6378 22.1005C13.6335 22.0994 13.6291 22.0984 13.6259 22.0962C13.6161 22.094 13.6054 22.0907 13.5957 22.0864Z" fill="#DADDE0"/>
<path d="M13.6367 22.0999C13.6464 22.102 13.6561 22.1042 13.6658 22.1064C13.6561 22.1053 13.6464 22.1032 13.6367 22.0999Z" fill="white"/>
<path d="M13.5945 22.0866C13.6042 22.0909 13.615 22.0941 13.6247 22.0962C13.6085 22.093 13.5924 22.0876 13.5762 22.0812C13.5826 22.0833 13.588 22.0855 13.5945 22.0866Z" fill="white"/>
<path d="M13.5949 22.0867C13.5885 22.0856 13.583 22.0834 13.5766 22.0813C13.5755 22.0824 13.5733 22.0813 13.5723 22.0802V22.0781C13.5798 22.0824 13.5873 22.0845 13.5949 22.0867Z" fill="#DADDE0"/>
<path d="M13.5215 20.072L13.5721 22.0781C13.5549 22.0729 13.5376 22.0666 13.5215 22.0593V20.072Z" fill="#D1D1D1"/>
<path d="M13.5215 17.6378V20.0719L13.459 17.594L13.5215 17.6378Z" fill="#DADDE0"/>
<path d="M21.8816 11.0235L14.1004 17.689C14.0228 17.7558 13.9732 17.8477 13.9624 17.9479L13.6828 22.0106C13.6721 22.0951 13.5514 22.1066 13.5255 22.0252L12.273 16.6943C12.2159 16.5179 12.2902 16.3269 12.4519 16.2299L21.6403 10.7094C21.8515 10.582 22.0681 10.8638 21.8816 11.0235Z" fill="#ADBCC9"/>
</g>
<defs>
<clipPath id="clip0_238_263">
<rect width="32" height="31" fill="white"/>
</clipPath>
</defs>
</svg>
