<svg width="31" height="31" viewBox="0 0 31 31" fill="none" xmlns="http://www.w3.org/2000/svg">
<g clip-path="url(#clip0_238_239)">
<path d="M15.5 31C24.0604 31 31 24.0604 31 15.5C31 6.93959 24.0604 0 15.5 0C6.93959 0 0 6.93959 0 15.5C0 24.0604 6.93959 31 15.5 31Z" fill="#6F3FAA"/>
<path d="M22.2238 8.50336C18.451 7.59213 14.6715 6.52627 10.8025 7.88046C8.29739 8.81984 8.29739 11.5337 8.40178 13.83C8.40178 14.4562 7.67116 15.2913 7.98424 16.0219C8.61048 18.1094 9.13239 20.197 11.3243 21.2407C11.6375 21.4495 11.3243 21.867 11.5331 22.1801C11.4287 22.1801 11.2199 22.2845 11.2199 22.3889C11.2199 22.8892 11.4444 23.6544 11.2953 24.1478L17.9558 30.8055C24.8031 29.715 30.1547 24.1412 30.9077 17.1872L22.2238 8.50336Z" fill="#512D84"/>
<path d="M23.7011 10.8939L23.6961 10.8734C23.2819 9.19908 21.4148 7.40254 19.7001 7.02878L19.6808 7.02478C16.9074 6.49573 14.0953 6.49573 11.3225 7.02478L11.3025 7.02878C9.58845 7.40254 7.72124 9.1992 7.30656 10.8734L7.30196 10.8939C6.78997 13.232 6.78997 15.6032 7.30196 17.9414L7.30656 17.9619C7.70363 19.5646 9.43169 21.2787 11.0824 21.7501V23.619C11.0824 24.2955 11.9067 24.6278 12.3755 24.1396L14.2691 22.1713C14.6798 22.1942 15.0908 22.207 15.5016 22.207C16.8976 22.207 18.2943 22.075 19.6807 21.8105L19.7 21.8065C21.4147 21.4328 23.2819 19.6361 23.696 17.9619L23.7011 17.9414C24.2131 15.6032 24.2131 13.2321 23.7011 10.8939ZM22.2025 17.6024C21.926 18.6947 20.5084 20.0527 19.382 20.3036C17.9073 20.584 16.421 20.7038 14.9361 20.6627C14.9066 20.6619 14.8782 20.6734 14.8577 20.6946C14.6469 20.9108 13.4751 22.1139 13.4751 22.1139L12.0045 23.6232C11.897 23.7354 11.7081 23.659 11.7081 23.5043V20.4082C11.7081 20.357 11.6716 20.3136 11.6213 20.3037C11.621 20.3036 11.6208 20.3036 11.6205 20.3035C10.494 20.0526 9.07689 18.6946 8.79989 17.6023C8.33906 15.4889 8.33906 13.3464 8.79989 11.2329C9.07689 10.1406 10.494 8.78264 11.6205 8.53174C14.1959 8.04191 16.8072 8.04191 19.382 8.53174C20.509 8.78264 21.9261 10.1406 22.2026 11.2329C22.6639 13.3464 22.6639 15.4889 22.2025 17.6024Z" fill="white"/>
<path d="M17.9505 19.0315C17.7774 18.9789 17.6124 18.9436 17.459 18.8801C15.8708 18.2212 14.4092 17.3711 13.2515 16.0681C12.5931 15.3271 12.0778 14.4905 11.6422 13.6052C11.4356 13.1854 11.2616 12.7491 11.0841 12.3156C10.9223 11.9204 11.1606 11.512 11.4115 11.2141C11.647 10.9346 11.95 10.7207 12.2782 10.563C12.5343 10.44 12.7869 10.5109 12.974 10.728C13.3783 11.1974 13.7499 11.6907 14.0505 12.2348C14.2355 12.5694 14.1848 12.9785 13.8495 13.2062C13.768 13.2615 13.6938 13.3266 13.6179 13.389C13.5513 13.4438 13.4887 13.4992 13.4431 13.5733C13.3597 13.709 13.3557 13.8692 13.4093 14.0167C13.8227 15.1526 14.5194 16.036 15.6628 16.5119C15.8458 16.588 16.0295 16.6766 16.2403 16.652C16.5933 16.6108 16.7076 16.2235 16.955 16.0213C17.1968 15.8236 17.5058 15.821 17.7662 15.9858C18.0268 16.1507 18.2793 16.3276 18.5303 16.5065C18.7767 16.6821 19.022 16.8538 19.2492 17.054C19.4678 17.2465 19.5431 17.499 19.42 17.7601C19.1947 18.2385 18.8669 18.6363 18.3941 18.8904C18.2605 18.962 18.1011 18.9851 17.9505 19.0315C18.1011 18.9851 17.7774 18.9789 17.9505 19.0315Z" fill="white"/>
<path d="M15.5072 10.016C17.5845 10.0743 19.2908 11.4529 19.6564 13.5066C19.7187 13.8566 19.7409 14.2143 19.7686 14.5695C19.7803 14.7189 19.6956 14.8608 19.5345 14.8628C19.368 14.8648 19.2931 14.7254 19.2822 14.5762C19.2608 14.2806 19.246 13.9836 19.2052 13.6905C18.9902 12.143 17.7563 10.8628 16.2159 10.5881C15.9841 10.5467 15.747 10.5359 15.5121 10.5112C15.3637 10.4957 15.1694 10.4867 15.1365 10.3022C15.109 10.1475 15.2395 10.0243 15.3868 10.0164C15.4267 10.014 15.467 10.0159 15.5072 10.016C17.5846 10.0743 15.467 10.0159 15.5072 10.016Z" fill="white"/>
<path d="M18.6636 14.1086C18.6601 14.1346 18.6584 14.1955 18.6431 14.2529C18.588 14.4615 18.2717 14.4876 18.199 14.2772C18.1774 14.2147 18.1742 14.1436 18.174 14.0764C18.1733 13.6365 18.0777 13.1969 17.8558 12.8141C17.6277 12.4206 17.2792 12.09 16.8706 11.8897C16.6234 11.7688 16.3562 11.6935 16.0854 11.6488C15.967 11.6291 15.8473 11.6173 15.7284 11.6007C15.5842 11.5807 15.5072 11.4888 15.5141 11.3468C15.5205 11.2137 15.6178 11.1179 15.7628 11.1262C16.2395 11.1532 16.7 11.2563 17.1239 11.4807C17.9857 11.9372 18.4781 12.6576 18.6218 13.6196C18.6283 13.6633 18.6387 13.7064 18.6421 13.7501C18.6502 13.858 18.6553 13.9661 18.6636 14.1086C18.6601 14.1344 18.6553 13.9661 18.6636 14.1086Z" fill="white"/>
<path d="M17.3703 14.0583C17.1966 14.0614 17.1036 13.9652 17.0856 13.8059C17.0732 13.6949 17.0632 13.5823 17.0367 13.4741C16.9845 13.2612 16.8714 13.0639 16.6923 12.9334C16.6078 12.8719 16.5119 12.827 16.4116 12.7979C16.2841 12.7611 16.1517 12.7712 16.0246 12.7401C15.8865 12.7063 15.8101 12.5944 15.8318 12.4649C15.8515 12.3469 15.9662 12.2549 16.0951 12.2643C16.9005 12.3224 17.4761 12.7388 17.5583 13.6869C17.5642 13.7538 17.5709 13.8245 17.5561 13.8886C17.5306 13.998 17.4494 14.0529 17.3703 14.0583C17.4494 14.0529 17.1965 14.0614 17.3703 14.0583Z" fill="white"/>
<path d="M23.6993 10.8939L23.6942 10.8734C23.4621 9.93486 22.7732 8.958 21.9106 8.21472L20.7446 9.24814C21.4379 9.80063 22.032 10.566 22.2008 11.2329C22.6622 13.3464 22.6622 15.4888 22.2008 17.6024C21.9243 18.6947 20.5066 20.0527 19.3802 20.3036C17.9056 20.584 16.4193 20.7038 14.9344 20.6627C14.9049 20.6619 14.8765 20.6734 14.8559 20.6946C14.6452 20.9109 13.4734 22.1139 13.4734 22.1139L12.0028 23.6232C11.8953 23.7354 11.7064 23.6591 11.7064 23.5043V20.4082C11.7064 20.357 11.6698 20.3136 11.6196 20.3037C11.6193 20.3037 11.619 20.3036 11.6187 20.3036C10.9786 20.161 10.2448 19.6607 9.67955 19.055L8.52734 20.076C9.24694 20.8588 10.1751 21.4917 11.0805 21.7502V23.6192C11.0805 24.2957 11.9048 24.6279 12.3736 24.1397L14.2672 22.1714C14.6779 22.1943 15.0887 22.2072 15.4997 22.2072C16.8957 22.2072 18.2924 22.0751 19.6788 21.8106L19.6981 21.8067C21.4128 21.433 23.28 19.6364 23.6941 17.9621L23.6992 17.9416C24.2112 15.6033 24.2112 13.2321 23.6993 10.8939Z" fill="#D1D1D1"/>
<path d="M17.9509 19.0315C17.7778 18.9789 18.1014 18.9852 17.9509 19.0315V19.0315Z" fill="white"/>
<path d="M19.2485 17.0539C19.0212 16.8538 18.7758 16.682 18.5295 16.5064C18.2785 16.3275 18.026 16.1506 17.7655 15.9857C17.5051 15.8209 17.1961 15.8235 16.9543 16.0211C16.7069 16.2234 16.5927 16.6107 16.2396 16.6519C16.0288 16.6764 15.8451 16.5878 15.6621 16.5118C14.9586 16.2191 14.4248 15.7715 14.0214 15.2064L13.1641 15.9663C13.1932 16 13.221 16.0346 13.2506 16.0679C14.4084 17.371 15.87 18.2211 17.4581 18.88C17.6114 18.9436 17.7765 18.9789 17.9496 19.0314C17.7765 18.9788 18.1003 18.9851 17.9496 19.0314C18.1003 18.9851 18.2596 18.9618 18.3933 18.8902C18.8662 18.6362 19.1939 18.2382 19.4192 17.7599C19.5423 17.4988 19.4671 17.2464 19.2485 17.0539Z" fill="#D1D1D1"/>
<path d="M15.5106 10.0164C15.5086 10.0164 15.5066 10.0162 15.5046 10.0162C15.5026 10.0161 15.5051 10.0162 15.5106 10.0164Z" fill="white"/>
<path d="M15.5039 10.0161C15.5057 10.0161 15.5074 10.0162 15.5091 10.0162C15.6244 10.0204 17.4994 10.072 15.5039 10.0161Z" fill="white"/>
<path d="M18.4827 11.2518L18.1172 11.5758C18.6916 12.1347 19.0877 12.8753 19.2009 13.6904C19.2416 13.9836 19.2566 14.2804 19.2779 14.576C19.2888 14.7254 19.3636 14.8647 19.5302 14.8628C19.6915 14.8608 19.7761 14.7189 19.7644 14.5695C19.7366 14.2143 19.7145 13.8565 19.6522 13.5066C19.4921 12.6076 19.0752 11.838 18.4827 11.2518Z" fill="#D1D1D1"/>
<path d="M18.618 13.6193C18.5133 12.9183 18.2225 12.3463 17.7395 11.9105L17.375 12.2335C17.5635 12.4008 17.7265 12.5972 17.8521 12.8139C18.074 13.1968 18.1696 13.6364 18.1703 14.0763C18.1705 14.1435 18.1737 14.2146 18.1953 14.2771C18.2681 14.4876 18.5843 14.4615 18.6394 14.2529C18.6547 14.1954 18.6564 14.1344 18.6599 14.1086C18.6515 13.9661 18.6564 14.1345 18.6599 14.1086C18.6515 13.9661 18.6464 13.858 18.6383 13.7499C18.635 13.706 18.6246 13.6629 18.618 13.6193Z" fill="#D1D1D1"/>
<path d="M18.6608 14.1086C18.6526 13.966 18.6574 14.1344 18.6608 14.1086V14.1086Z" fill="white"/>
<path d="M17.3699 14.0583C17.3726 14.0581 17.3752 14.0567 17.3778 14.0564C17.3705 14.0564 17.3592 14.0566 17.3477 14.057C17.3552 14.0572 17.362 14.0583 17.3699 14.0583Z" fill="white"/>
<path d="M17.369 14.0583C17.3612 14.0584 17.3543 14.0572 17.3468 14.057C17.3092 14.058 17.2704 14.06 17.369 14.0583Z" fill="white"/>
<path d="M17.3771 14.0564C17.3743 14.0567 17.3717 14.0581 17.3691 14.0583C17.3895 14.0569 17.3877 14.0564 17.3771 14.0564Z" fill="white"/>
<path d="M17.0038 12.565L16.6328 12.8939C16.6533 12.9063 16.6733 12.9193 16.6928 12.9334C16.8719 13.0638 16.985 13.2611 17.0372 13.4741C17.0637 13.5822 17.0735 13.6947 17.0861 13.8059C17.1032 13.958 17.1896 14.0516 17.3486 14.057C17.3602 14.0567 17.3715 14.0565 17.3788 14.0564C17.4553 14.0479 17.532 13.9943 17.5565 13.8884C17.5713 13.8244 17.5646 13.7537 17.5587 13.6868C17.5126 13.1567 17.3121 12.793 17.0038 12.565Z" fill="#D1D1D1"/>
</g>
<defs>
<clipPath id="clip0_238_239">
<rect width="31" height="31" fill="white"/>
</clipPath>
</defs>
</svg>
