<svg width="31" height="31" viewBox="0 0 31 31" fill="none" xmlns="http://www.w3.org/2000/svg">
<g clip-path="url(#clip0_238_290)">
<path d="M15.5 31C24.0604 31 31 24.0604 31 15.5C31 6.93959 24.0604 0 15.5 0C6.93959 0 0 6.93959 0 15.5C0 24.0604 6.93959 31 15.5 31Z" fill="#75B73B"/>
<path d="M21.8108 9.19256C20.9121 8.96781 19.5905 8.1916 18.735 7.88045C15.3949 6.83668 10.9067 7.67169 9.65419 11.5337C9.54981 11.6381 9.34104 11.6381 9.23666 11.6381C6.73159 14.5606 8.40166 18.1094 8.19289 21.3451C8.12163 22.4858 7.52185 23.4943 6.75 24.3475L13.2456 30.8363C13.9815 30.9435 14.7337 31 15.4993 31C23.1546 31 29.513 25.4499 30.7721 18.1543L21.8108 9.19256Z" fill="#52891D"/>
<path d="M15.0654 6.56614C10.3409 6.79089 6.61277 10.7255 6.62699 15.4551C6.63135 16.8956 6.97913 18.2553 7.59272 19.4569L6.65079 24.0291C6.59987 24.2765 6.82292 24.493 7.06862 24.4348L11.5488 23.3734C12.6998 23.9468 13.9927 24.2779 15.3609 24.2988C20.1897 24.3726 24.216 20.5385 24.3667 15.7115C24.5279 10.5373 20.2575 6.3188 15.0654 6.56614ZM20.4112 20.3399C19.0992 21.6519 17.3546 22.3745 15.499 22.3745C14.4126 22.3745 13.3723 22.1307 12.4072 21.65L11.7834 21.3391L9.0364 21.9898L9.61456 19.1831L9.30728 18.5811C8.8062 17.5999 8.55214 16.539 8.55214 15.4276C8.55214 13.572 9.27477 11.8275 10.5868 10.5154C11.8871 9.215 13.6601 8.48081 15.4992 8.48081C17.3546 8.48081 19.0992 9.20344 20.4112 10.5154C21.7231 11.8274 22.4458 13.572 22.4458 15.4274C22.4459 17.2666 21.7116 19.0395 20.4112 20.3399Z" fill="white"/>
<path d="M19.8051 17.3516L18.0865 16.8582C17.8608 16.7935 17.6174 16.8576 17.4527 17.0254L17.0324 17.4534C16.8553 17.6341 16.5864 17.692 16.3519 17.5972C15.5389 17.2681 13.8288 15.7476 13.3923 14.9872C13.2661 14.7678 13.287 14.4936 13.4417 14.2932L13.8085 13.8186C13.9523 13.6327 13.9825 13.3829 13.8875 13.1679L13.1646 11.5327C12.9914 11.141 12.4909 11.027 12.1639 11.3036C11.6843 11.7093 11.1152 12.3256 11.0461 13.0086C10.9241 14.2127 11.4406 15.7304 13.3931 17.5529C15.6489 19.6586 17.4554 19.9366 18.6318 19.6517C19.2989 19.4902 19.8321 18.8425 20.1684 18.312C20.3979 17.9501 20.2165 17.4699 19.8051 17.3516Z" fill="white"/>
<path d="M21.5552 8.94324L20.2097 10.3224C20.2781 10.3856 20.3463 10.4493 20.4125 10.5156C21.7246 11.8276 22.4472 13.5722 22.4472 15.4276C22.4472 17.2667 21.7129 19.0395 20.4125 20.34C19.1006 21.652 17.356 22.3746 15.5004 22.3746C14.4139 22.3746 13.3737 22.1308 12.4085 21.6501L11.7847 21.3392L9.03773 21.9899L9.09452 21.7143L6.66211 24.2071C6.71575 24.3683 6.88644 24.4781 7.06983 24.4346L11.55 23.3733C12.7011 23.9467 13.9939 24.2778 15.3622 24.2987C20.1909 24.3725 24.2173 20.5384 24.3679 15.7113C24.4511 13.0392 23.3523 10.622 21.5552 8.94324Z" fill="#D1D1D1"/>
<path d="M19.8056 17.3516L18.0871 16.8582C17.8613 16.7935 17.6179 16.8576 17.4533 17.0253L17.0329 17.4534C16.8558 17.6341 16.587 17.692 16.3524 17.5972C15.8828 17.4071 15.1142 16.8194 14.4642 16.2104L13.2695 17.4349C13.3105 17.4742 13.3514 17.5134 13.3937 17.5529C15.6494 19.6586 17.456 19.9366 18.6323 19.6517C19.2995 19.4902 19.8327 18.8425 20.169 18.312C20.3984 17.9501 20.217 17.4699 19.8056 17.3516Z" fill="#D1D1D1"/>
</g>
<defs>
<clipPath id="clip0_238_290">
<rect width="31" height="31" fill="white"/>
</clipPath>
</defs>
</svg>
