<svg width="50" height="50" viewBox="0 0 50 50" fill="none" xmlns="http://www.w3.org/2000/svg">
<g clip-path="url(#clip0_238_319)">
<path d="M25 0C11.2146 0 0 11.2146 0 25C0 38.7854 11.2146 50 25 50C38.7854 50 50 38.7854 50 25C50 11.2146 38.7854 0 25 0Z" fill="#B79F68"/>
<path d="M25.0013 39.5832C23.8513 39.5832 22.918 38.6519 22.918 37.4998C22.918 36.3478 23.8513 35.4165 25.0013 35.4165C26.1513 35.4165 27.0846 36.3478 27.0846 37.4998C27.0846 38.6519 26.1513 39.5832 25.0013 39.5832Z" fill="#ECEFF1"/>
<path d="M27.0846 29.1665C27.0846 30.3186 26.1513 31.2498 25.0013 31.2498C23.8513 31.2498 22.918 30.3186 22.918 29.1665V12.4998C22.918 11.3478 23.8513 10.4165 25.0013 10.4165C26.1513 10.4165 27.0846 11.3478 27.0846 12.4998V29.1665Z" fill="#FAFAFA"/>
<path d="M25 0C11.2146 0 0 11.2146 0 25C0 38.7854 11.2146 50 25 50V39.5833C23.85 39.5833 22.9167 38.6521 22.9167 37.5C22.9167 36.3479 23.85 35.4167 25 35.4167V31.25C23.85 31.25 22.9167 30.3187 22.9167 29.1667V12.5C22.9167 11.3479 23.85 10.4167 25 10.4167V0Z" fill="#2D2827"/>
<path d="M25.0013 35.4165C23.8513 35.4165 22.918 36.3478 22.918 37.4998C22.918 38.6519 23.8513 39.5832 25.0013 39.5832V35.4165Z" fill="#CDD0D2"/>
<path d="M25.0013 10.4165C23.8513 10.4165 22.918 11.3478 22.918 12.4998V29.1665C22.918 30.3186 23.8513 31.2498 25.0013 31.2498V10.4165Z" fill="#DADADA"/>
</g>
<defs>
<clipPath id="clip0_238_319">
<rect width="50" height="50" fill="white"/>
</clipPath>
</defs>
</svg>
