<svg width="78" height="74" viewBox="0 0 78 74" fill="none" xmlns="http://www.w3.org/2000/svg">
<mask id="path-1-inside-1_2001_13" fill="white">
<path d="M66.9006 73.8421H11.099C10.8194 73.8421 10.5513 73.7312 10.3536 73.5338C10.156 73.3364 10.0449 73.0687 10.0449 72.7895V59.9158C10.0477 55.9831 11.6133 52.2122 14.3979 49.4314C17.1826 46.6505 20.9585 45.087 24.8965 45.0842H53.103C57.0411 45.087 60.817 46.6505 63.6016 49.4314C66.3862 52.2122 67.9519 55.9831 67.9547 59.9158V72.7895C67.9547 73.0687 67.8436 73.3364 67.6459 73.5338C67.4483 73.7312 67.1801 73.8421 66.9006 73.8421ZM12.153 71.7369H65.8465V59.9158C65.8438 56.5414 64.5002 53.3061 62.111 50.92C59.7217 48.534 56.482 47.1923 53.103 47.1895H24.8965C21.5176 47.1923 18.2779 48.534 15.8886 50.92C13.4993 53.3061 12.1558 56.5414 12.153 59.9158V71.7369Z"/>
</mask>
<path d="M66.9006 73.8421H11.099C10.8194 73.8421 10.5513 73.7312 10.3536 73.5338C10.156 73.3364 10.0449 73.0687 10.0449 72.7895V59.9158C10.0477 55.9831 11.6133 52.2122 14.3979 49.4314C17.1826 46.6505 20.9585 45.087 24.8965 45.0842H53.103C57.0411 45.087 60.817 46.6505 63.6016 49.4314C66.3862 52.2122 67.9519 55.9831 67.9547 59.9158V72.7895C67.9547 73.0687 67.8436 73.3364 67.6459 73.5338C67.4483 73.7312 67.1801 73.8421 66.9006 73.8421ZM12.153 71.7369H65.8465V59.9158C65.8438 56.5414 64.5002 53.3061 62.111 50.92C59.7217 48.534 56.482 47.1923 53.103 47.1895H24.8965C21.5176 47.1923 18.2779 48.534 15.8886 50.92C13.4993 53.3061 12.1558 56.5414 12.153 59.9158V71.7369Z" fill="#E7CD92"/>
<path d="M10.0449 59.9158L-29.9551 59.8874L-29.9551 59.9016V59.9158H10.0449ZM24.8965 45.0842V5.08423H24.8824L24.8682 5.08424L24.8965 45.0842ZM53.103 45.0842L53.1314 5.08424L53.1172 5.08423H53.103V45.0842ZM67.9547 59.9158H107.955V59.9016L107.955 59.8874L67.9547 59.9158ZM12.153 71.7369H-27.847V111.737H12.153V71.7369ZM65.8465 71.7369V111.737H105.847V71.7369H65.8465ZM65.8465 59.9158H105.847V59.8993L105.847 59.8827L65.8465 59.9158ZM53.103 47.1895L53.136 7.18951L53.1195 7.18949H53.103V47.1895ZM24.8965 47.1895V7.18949H24.88L24.8635 7.18951L24.8965 47.1895ZM12.153 59.9158L-27.847 59.8827L-27.847 59.8993V59.9158H12.153ZM66.9006 33.8421H11.099V113.842H66.9006V33.8421ZM11.099 33.8421C21.4106 33.8421 31.3108 37.9323 38.6188 45.2304L-17.9115 101.837C-10.2082 109.53 0.228252 113.842 11.099 113.842V33.8421ZM38.6188 45.2304C45.9286 52.5303 50.0449 62.4426 50.0449 72.7895H-29.9551C-29.9551 83.6948 -25.6166 94.1425 -17.9115 101.837L38.6188 45.2304ZM50.0449 72.7895V59.9158H-29.9551V72.7895H50.0449ZM50.0449 59.9442C50.0402 66.6277 47.379 73.0253 42.6631 77.7347L-13.8672 21.128C-24.1523 31.3992 -29.9447 45.3384 -29.9551 59.8874L50.0449 59.9442ZM42.6631 77.7347C37.9491 82.4424 31.5683 85.0795 24.9249 85.0842L24.8682 5.08424C10.3487 5.09452 -3.58396 10.8586 -13.8672 21.128L42.6631 77.7347ZM24.8965 85.0842H53.103V5.08423H24.8965V85.0842ZM53.0747 85.0842C46.4313 85.0795 40.0505 82.4424 35.3365 77.7347L91.8668 21.128C81.5835 10.8586 67.6508 5.09452 53.1314 5.08424L53.0747 85.0842ZM35.3365 77.7347C30.6206 73.0253 27.9594 66.6277 27.9547 59.9442L107.955 59.8874C107.944 45.3384 102.152 31.3992 91.8668 21.128L35.3365 77.7347ZM27.9547 59.9158V72.7895H107.955V59.9158H27.9547ZM27.9547 72.7895C27.9547 62.4427 32.0709 52.5304 39.3808 45.2304L95.9111 101.837C103.616 94.1424 107.955 83.6947 107.955 72.7895H27.9547ZM39.3808 45.2304C46.6888 37.9323 56.589 33.8421 66.9006 33.8421V113.842C77.7713 113.842 88.2077 109.53 95.9111 101.837L39.3808 45.2304ZM12.153 111.737H65.8465V31.7369H12.153V111.737ZM105.847 71.7369V59.9158H25.8465V71.7369H105.847ZM105.847 59.8827C105.835 45.8937 100.265 32.4919 90.3761 22.6167L33.8458 79.2234C28.7358 74.1202 25.8525 67.1892 25.8466 59.9489L105.847 59.8827ZM90.3761 22.6167C80.4894 12.7432 67.0948 7.20102 53.136 7.18951L53.07 87.1895C45.8692 87.1835 38.954 84.3247 33.8458 79.2234L90.3761 22.6167ZM53.103 7.18949H24.8965V87.1895H53.103V7.18949ZM24.8635 7.18951C10.9048 7.20102 -2.48979 12.7432 -12.3766 22.6167L44.1538 79.2234C39.0455 84.3247 32.1304 87.1835 24.9295 87.1895L24.8635 7.18951ZM-12.3766 22.6167C-22.2651 32.4919 -27.8354 45.8937 -27.847 59.8827L52.153 59.9489C52.147 67.1891 49.2638 74.1202 44.1538 79.2234L-12.3766 22.6167ZM-27.847 59.9158V71.7369H52.153V59.9158H-27.847Z" fill="#E7CD92" mask="url(#path-1-inside-1_2001_13)"/>
<path d="M20.1947 72.7875L21.2439 71.7368L20.1947 72.7875Z" fill="#E7CD92" stroke="#E7CD92" stroke-width="40"/>
<mask id="path-4-inside-2_2001_13" fill="white">
<path d="M51.5335 60.5158H26.4681C26.1886 60.5158 25.9205 60.4049 25.7228 60.2075C25.5251 60.0101 25.4141 59.7423 25.4141 59.4632V46.1369C25.4141 45.8577 25.5251 45.5899 25.7228 45.3925C25.9205 45.1951 26.1886 45.0842 26.4681 45.0842C26.7477 45.0842 27.0158 45.1951 27.2134 45.3925C27.4111 45.5899 27.5222 45.8577 27.5222 46.1369V58.4105H50.4795V46.1369C50.4795 45.8577 50.5905 45.5899 50.7882 45.3925C50.9859 45.1951 51.254 45.0842 51.5335 45.0842C51.8131 45.0842 52.0812 45.1951 52.2789 45.3925C52.4765 45.5899 52.5876 45.8577 52.5876 46.1369V59.4632C52.5876 59.7423 52.4765 60.0101 52.2789 60.2075C52.0812 60.4049 51.8131 60.5158 51.5335 60.5158Z"/>
</mask>
<path d="M51.5335 60.5158H26.4681C26.1886 60.5158 25.9205 60.4049 25.7228 60.2075C25.5251 60.0101 25.4141 59.7423 25.4141 59.4632V46.1369C25.4141 45.8577 25.5251 45.5899 25.7228 45.3925C25.9205 45.1951 26.1886 45.0842 26.4681 45.0842C26.7477 45.0842 27.0158 45.1951 27.2134 45.3925C27.4111 45.5899 27.5222 45.8577 27.5222 46.1369V58.4105H50.4795V46.1369C50.4795 45.8577 50.5905 45.5899 50.7882 45.3925C50.9859 45.1951 51.254 45.0842 51.5335 45.0842C51.8131 45.0842 52.0812 45.1951 52.2789 45.3925C52.4765 45.5899 52.5876 45.8577 52.5876 46.1369V59.4632C52.5876 59.7423 52.4765 60.0101 52.2789 60.2075C52.0812 60.4049 51.8131 60.5158 51.5335 60.5158Z" fill="#E7CD92"/>
<path d="M27.5222 58.4105H-12.4778V98.4105H27.5222V58.4105ZM50.4795 58.4105V98.4105H90.4795V58.4105H50.4795ZM51.5335 20.5158H26.4681V100.516H51.5335V20.5158ZM26.4681 20.5158C36.7797 20.5158 46.6799 24.606 53.988 31.9041L-2.54238 88.5109C5.16097 96.2038 15.5974 100.516 26.4681 100.516V20.5158ZM53.988 31.9041C61.2978 39.2041 65.4141 49.1164 65.4141 59.4632H-14.5859C-14.5859 70.3683 -10.2475 80.8161 -2.54238 88.5109L53.988 31.9041ZM65.4141 59.4632V46.1369H-14.5859V59.4632H65.4141ZM65.4141 46.1369C65.4141 56.4837 61.2978 66.3959 53.988 73.6959L-2.54238 17.0892C-10.2475 24.7839 -14.5859 35.2317 -14.5859 46.1369H65.4141ZM53.988 73.6959C46.6799 80.994 36.7797 85.0842 26.4681 85.0842V5.08423C15.5974 5.08423 5.16097 9.39622 -2.54238 17.0892L53.988 73.6959ZM26.4681 85.0842C16.1565 85.0842 6.25623 80.994 -1.05172 73.6959L55.4786 17.0892C47.7753 9.39627 37.3389 5.08423 26.4681 5.08423V85.0842ZM-1.05172 73.6959C-8.3614 66.3961 -12.4778 56.4839 -12.4778 46.1369H67.5222C67.5222 35.2315 63.1836 24.7838 55.4786 17.0892L-1.05172 73.6959ZM-12.4778 46.1369V58.4105H67.5222V46.1369H-12.4778ZM27.5222 98.4105H50.4795V18.4105H27.5222V98.4105ZM90.4795 58.4105V46.1369H10.4795V58.4105H90.4795ZM90.4795 46.1369C90.4795 56.4837 86.3632 66.3959 79.0534 73.6959L22.523 17.0892C14.8179 24.7839 10.4795 35.2317 10.4795 46.1369H90.4795ZM79.0534 73.6959C71.7454 80.994 61.8451 85.0842 51.5335 85.0842V5.08423C40.6628 5.08423 30.2264 9.39622 22.523 17.0892L79.0534 73.6959ZM51.5335 85.0842C41.2219 85.0842 31.3217 80.994 24.0137 73.6959L80.544 17.0892C72.8407 9.39622 62.4042 5.08423 51.5335 5.08423V85.0842ZM24.0137 73.6959C16.7039 66.3959 12.5876 56.4837 12.5876 46.1369H92.5876C92.5876 35.2317 88.2492 24.7839 80.544 17.0892L24.0137 73.6959ZM12.5876 46.1369V59.4632H92.5876V46.1369H12.5876ZM12.5876 59.4632C12.5876 49.1164 16.7039 39.2041 24.0137 31.9041L80.544 88.5109C88.2492 80.8161 92.5876 70.3683 92.5876 59.4632H12.5876ZM24.0137 31.9041C31.3217 24.606 41.2219 20.5158 51.5335 20.5158V100.516C62.4042 100.516 72.8407 96.2038 80.544 88.5109L24.0137 31.9041Z" fill="#E7CD92" mask="url(#path-4-inside-2_2001_13)"/>
<path d="M49.6148 65.8632H48.7084C48.4288 65.8632 48.1607 65.7523 47.963 65.5549C47.7653 65.3575 47.6543 65.0897 47.6543 64.8105C47.6543 64.5314 47.7653 64.2636 47.963 64.0662C48.1607 63.8688 48.4288 63.7579 48.7084 63.7579H49.6148C49.8944 63.7579 50.1625 63.8688 50.3602 64.0662C50.5578 64.2636 50.6689 64.5314 50.6689 64.8105C50.6689 65.0897 50.5578 65.3575 50.3602 65.5549C50.1625 65.7523 49.8944 65.8632 49.6148 65.8632Z" fill="#E7CD92"/>
<path d="M29.2926 65.8632H28.3861C28.1065 65.8632 27.8384 65.7523 27.6408 65.5549C27.4431 65.3575 27.332 65.0897 27.332 64.8105C27.332 64.5314 27.4431 64.2636 27.6408 64.0662C27.8384 63.8688 28.1065 63.7579 28.3861 63.7579H29.2926C29.5721 63.7579 29.8402 63.8688 30.0379 64.0662C30.2356 64.2636 30.3466 64.5314 30.3466 64.8105C30.3466 65.0897 30.2356 65.3575 30.0379 65.5549C29.8402 65.7523 29.5721 65.8632 29.2926 65.8632Z" fill="#E7CD92"/>
<path d="M43.351 22.9579H43.347H39.0141L39.0149 21.9052L39.0155 21.1368C40.0628 21.1376 41.0847 21.4056 41.9888 21.9052C42.4886 22.1814 42.9524 22.5284 43.3647 22.9401C43.3654 22.9408 43.366 22.9415 43.3667 22.9421M43.351 22.9579H43.3824C43.3772 22.9526 43.3719 22.9474 43.3667 22.9421M43.351 22.9579L43.3667 22.9421M43.351 22.9579L43.3667 22.9421M38.9857 21.9052L38.9865 22.9579H34.6536H34.6496H34.6182C34.6234 22.9526 34.6286 22.9474 34.6339 22.9421C34.6345 22.9415 34.6352 22.9408 34.6359 22.9401C35.0482 22.5284 35.512 22.1814 36.0118 21.9052C36.9159 21.4056 37.9377 21.1376 38.9851 21.1368L38.9857 21.9052Z" fill="#E7CD92" stroke="#E7CD92" stroke-width="40"/>
<path d="M22.5248 21.9033L23.574 20.8526L22.5248 21.9033ZM22.5248 16.6441L23.574 17.6947L22.5248 16.6441Z" fill="#E7CD92" stroke="#E7CD92" stroke-width="40"/>
<mask id="path-10-inside-3_2001_13" fill="white">
<path d="M52.6174 17.7158H25.3807C25.1011 17.7158 24.833 17.6049 24.6354 17.4075C24.4377 17.2101 24.3266 16.9423 24.3266 16.6632V16.1895C24.3031 13.2388 25.1774 10.3505 26.8337 7.90697C28.4901 5.4634 30.8504 3.57973 33.6023 2.50526C33.7317 2.45427 33.8699 2.42935 34.0089 2.43195C34.148 2.43454 34.2852 2.46459 34.4125 2.52036C34.5399 2.57613 34.655 2.65653 34.7511 2.75691C34.8472 2.8573 34.9225 2.97569 34.9726 3.10526C35.0724 3.36495 35.0653 3.65355 34.9527 3.90799C34.8401 4.16243 34.6313 4.36203 34.3718 4.46316C32.1145 5.34716 30.1633 6.86764 28.7559 8.8394C27.3485 10.8112 26.5457 13.1491 26.4453 15.5684H51.5529C51.4149 12.4389 50.1059 9.47506 47.8847 7.26316C46.6812 6.05736 45.2475 5.10521 43.6685 4.46316C43.411 4.36 43.2045 4.15955 43.094 3.90533C42.9835 3.65111 42.9778 3.36362 43.0783 3.10526C43.1283 2.97569 43.2036 2.8573 43.2997 2.75691C43.3959 2.65653 43.5109 2.57613 43.6383 2.52036C43.7657 2.46459 43.9028 2.43454 44.0419 2.43195C44.181 2.42935 44.3192 2.45427 44.4485 2.50526C46.3105 3.2463 48.003 4.35634 49.4237 5.76842C50.7907 7.12954 51.8745 8.74737 52.6126 10.5287C53.3507 12.31 53.7285 14.2196 53.7242 16.1474V16.6211C53.7303 16.7673 53.7057 16.9133 53.6521 17.0495C53.5985 17.1858 53.517 17.3094 53.4128 17.4124C53.3086 17.5154 53.1841 17.5956 53.0472 17.6479C52.9102 17.7001 52.7639 17.7232 52.6174 17.7158Z"/>
</mask>
<path d="M52.6174 17.7158H25.3807C25.1011 17.7158 24.833 17.6049 24.6354 17.4075C24.4377 17.2101 24.3266 16.9423 24.3266 16.6632V16.1895C24.3031 13.2388 25.1774 10.3505 26.8337 7.90697C28.4901 5.4634 30.8504 3.57973 33.6023 2.50526C33.7317 2.45427 33.8699 2.42935 34.0089 2.43195C34.148 2.43454 34.2852 2.46459 34.4125 2.52036C34.5399 2.57613 34.655 2.65653 34.7511 2.75691C34.8472 2.8573 34.9225 2.97569 34.9726 3.10526C35.0724 3.36495 35.0653 3.65355 34.9527 3.90799C34.8401 4.16243 34.6313 4.36203 34.3718 4.46316C32.1145 5.34716 30.1633 6.86764 28.7559 8.8394C27.3485 10.8112 26.5457 13.1491 26.4453 15.5684H51.5529C51.4149 12.4389 50.1059 9.47506 47.8847 7.26316C46.6812 6.05736 45.2475 5.10521 43.6685 4.46316C43.411 4.36 43.2045 4.15955 43.094 3.90533C42.9835 3.65111 42.9778 3.36362 43.0783 3.10526C43.1283 2.97569 43.2036 2.8573 43.2997 2.75691C43.3959 2.65653 43.5109 2.57613 43.6383 2.52036C43.7657 2.46459 43.9028 2.43454 44.0419 2.43195C44.181 2.42935 44.3192 2.45427 44.4485 2.50526C46.3105 3.2463 48.003 4.35634 49.4237 5.76842C50.7907 7.12954 51.8745 8.74737 52.6126 10.5287C53.3507 12.31 53.7285 14.2196 53.7242 16.1474V16.6211C53.7303 16.7673 53.7057 16.9133 53.6521 17.0495C53.5985 17.1858 53.517 17.3094 53.4128 17.4124C53.3086 17.5154 53.1841 17.5956 53.0472 17.6479C52.9102 17.7001 52.7639 17.7232 52.6174 17.7158Z" fill="#E7CD92"/>
<path d="M52.6174 17.7158L54.6488 -22.2326L53.6338 -22.2842H52.6174V17.7158ZM24.3266 16.1895H64.3266V16.0301L64.3254 15.8707L24.3266 16.1895ZM33.6023 2.50526L48.1505 39.7659L48.2102 39.7425L48.2698 39.719L33.6023 2.50526ZM34.9726 3.10526L72.3084 -11.2487L72.2949 -11.2837L72.2814 -11.3187L34.9726 3.10526ZM34.3718 4.46316L19.8465 -32.8064L19.8161 -32.7945L19.7858 -32.7826L34.3718 4.46316ZM26.4453 15.5684L-13.5203 13.9089L-15.2502 55.5684H26.4453V15.5684ZM51.5529 15.5684V55.5684H93.3544L91.5141 13.8074L51.5529 15.5684ZM47.8847 7.26316L19.574 35.5209L19.6168 35.5638L19.6597 35.6066L47.8847 7.26316ZM43.6685 4.46316L58.7359 -32.5905L58.6383 -32.6302L58.5405 -32.6694L43.6685 4.46316ZM43.0783 3.10526L80.3609 17.5967L80.3741 17.563L80.3871 17.5292L43.0783 3.10526ZM44.4485 2.50526L59.2393 -34.6597L59.1777 -34.6842L59.116 -34.7085L44.4485 2.50526ZM49.4237 5.76842L77.6465 -22.5771L77.6341 -22.5895L77.6217 -22.6019L49.4237 5.76842ZM53.7242 16.1474L13.7243 16.0588L13.7242 16.1031V16.1474H53.7242ZM53.7242 16.6211H13.7242V17.4484L13.7584 18.275L53.7242 16.6211ZM52.6174 -22.2842H25.3807V57.7158H52.6174V-22.2842ZM25.3807 -22.2842C35.6925 -22.2842 45.5927 -18.1939 52.9005 -10.8959L-3.62981 45.7108C4.0734 53.4037 14.5098 57.7158 25.3807 57.7158V-22.2842ZM52.9005 -10.8959C60.2103 -3.59598 64.3266 6.31626 64.3266 16.6632H-15.6734C-15.6734 27.5684 -11.3349 38.0161 -3.62981 45.7108L52.9005 -10.8959ZM64.3266 16.6632V16.1895H-15.6734V16.6632H64.3266ZM64.3254 15.8707C64.3665 21.034 62.8363 26.0834 59.944 30.3504L-6.27658 -14.5365C-12.4816 -5.38238 -15.7603 5.44357 -15.6721 16.5082L64.3254 15.8707ZM59.944 30.3504C57.0522 34.6166 52.9373 37.8968 48.1505 39.7659L19.0542 -34.7553C8.76344 -30.7374 -0.0720711 -23.6898 -6.27658 -14.5365L59.944 30.3504ZM48.2698 39.719C43.494 41.6014 38.3942 42.5206 33.2638 42.425L34.7541 -37.5611C29.3456 -37.6619 23.9694 -36.6928 18.9348 -34.7085L48.2698 39.719ZM33.2638 42.425C28.1333 42.3294 23.0711 41.2208 18.3684 39.1617L50.4567 -34.121C45.4992 -36.2917 40.1627 -37.4603 34.7541 -37.5611L33.2638 42.425ZM18.3684 39.1617C13.6654 37.1024 9.41365 34.1324 5.85959 30.4206L63.6426 -24.9068C59.8963 -28.8194 55.4144 -31.9501 50.4567 -34.121L18.3684 39.1617ZM5.85959 30.4206C2.30545 26.7087 -0.481024 22.3279 -2.33626 17.5292L72.2814 -11.3187C70.326 -16.3766 67.389 -20.9941 63.6426 -24.9068L5.85959 30.4206ZM-2.36323 17.4593C-6.06159 7.83957 -5.79626 -2.85319 -1.62669 -12.2768L71.5321 20.0928C75.9268 10.1603 76.2064 -1.10966 72.3084 -11.2487L-2.36323 17.4593ZM-1.62669 -12.2768C2.5421 -21.6987 10.268 -29.0733 19.8465 -32.8064L48.897 41.7327C58.9945 37.7973 67.1381 30.0236 71.5321 20.0928L-1.62669 -12.2768ZM19.7858 -32.7826C10.3122 -29.0726 2.11507 -22.6881 -3.80153 -14.3988L61.3134 32.0776C58.2115 36.4234 53.9167 39.7669 48.9578 41.7089L19.7858 -32.7826ZM-3.80153 -14.3988C-9.71853 -6.10886 -13.0975 3.7263 -13.5203 13.9089L66.4108 17.228C66.1889 22.5719 64.4156 27.7312 61.3134 32.0776L-3.80153 -14.3988ZM26.4453 55.5684H51.5529V-24.4316H26.4453V55.5684ZM91.5141 13.8074C90.9343 0.65164 85.4316 -11.7974 76.1098 -21.0802L19.6597 35.6066C14.7803 30.7475 11.8956 24.2262 11.5916 17.3295L91.5141 13.8074ZM76.1955 -20.9946C71.2086 -25.9908 65.2709 -29.9332 58.7359 -32.5905L28.6012 41.5168C25.2241 40.1436 22.1538 38.1056 19.574 35.5209L76.1955 -20.9946ZM58.5405 -32.6694C68.0487 -28.8612 75.6857 -21.455 79.778 -12.041L6.41003 19.8517C10.7233 29.7741 18.7733 37.5812 28.7966 41.5957L58.5405 -32.6694ZM79.778 -12.041C83.8709 -2.62545 84.0809 8.02617 80.3609 17.5967L5.79557 -11.3861C1.87476 -1.29892 2.09611 9.92767 6.41003 19.8517L79.778 -12.041ZM80.3871 17.5292C78.5319 22.3279 75.7454 26.7087 72.1912 30.4206L14.4082 -24.9068C10.6619 -20.9941 7.72484 -16.3766 5.76942 -11.3187L80.3871 17.5292ZM72.1912 30.4206C68.6372 34.1324 64.3855 37.1024 59.6824 39.1617L27.5942 -34.121C22.6364 -31.9501 18.1545 -28.8194 14.4082 -24.9068L72.1912 30.4206ZM59.6824 39.1617C54.9798 41.2208 49.9175 42.3294 44.7871 42.425L43.2967 -37.5611C37.8882 -37.4603 32.5516 -36.2917 27.5942 -34.121L59.6824 39.1617ZM44.7871 42.425C39.6566 42.5206 34.5568 41.6013 29.7811 39.719L59.116 -34.7085C54.0815 -36.6928 48.7053 -37.6619 43.2967 -37.5611L44.7871 42.425ZM29.6577 39.6702C26.5054 38.4157 23.6366 36.535 21.2257 34.1387L77.6217 -22.6019C72.3693 -27.8223 66.1157 -31.923 59.2393 -34.6597L29.6577 39.6702ZM21.2008 34.114C18.8277 31.7512 16.9435 28.9398 15.6592 25.8404L89.566 -4.78303C86.8055 -11.445 82.7537 -17.4921 77.6465 -22.5771L21.2008 34.114ZM15.6592 25.8404C14.3749 22.7409 13.7169 19.4164 13.7243 16.0588L93.7241 16.236C93.7401 9.02279 92.3264 1.87907 89.566 -4.78303L15.6592 25.8404ZM13.7242 16.1474V16.6211H93.7242V16.1474H13.7242ZM13.7584 18.275C13.5341 12.8545 14.4447 7.44828 16.4303 2.4024L90.8739 31.6966C92.9667 26.3782 93.9264 20.6802 93.69 14.9671L13.7584 18.275ZM16.4303 2.4024C18.416 -2.64374 21.4323 -7.21666 25.2834 -11.0259L81.5422 45.8507C85.6016 41.8354 88.7809 37.0153 90.8739 31.6966L16.4303 2.4024ZM25.2834 -11.0259C29.1343 -14.835 33.7353 -17.7969 38.7909 -19.7254L67.3034 55.0211C72.633 52.9881 77.483 49.8658 81.5422 45.8507L25.2834 -11.0259ZM38.7909 -19.7254C43.8464 -21.6538 49.2472 -22.5073 54.6488 -22.2326L50.5861 57.6642C56.2805 57.9537 61.974 57.054 67.3034 55.0211L38.7909 -19.7254Z" fill="#E7CD92" mask="url(#path-10-inside-3_2001_13)"/>
<mask id="path-12-inside-4_2001_13" fill="white">
<path d="M42.9428 17.7158H35.0585C34.7929 17.7166 34.5369 17.6174 34.3415 17.4378C34.146 17.2583 34.0257 17.0117 34.0044 16.7474L32.8661 2.6842C32.8382 2.36143 32.8781 2.03639 32.9832 1.72992C33.0884 1.42344 33.2565 1.14229 33.4768 0.904456C33.6971 0.666627 33.9647 0.47737 34.2625 0.34881C34.5603 0.220249 34.8817 0.155219 35.2061 0.157885H42.7952C43.1196 0.155219 43.441 0.220249 43.7388 0.34881C44.0366 0.47737 44.3042 0.666627 44.5245 0.904456C44.7448 1.14229 44.9129 1.42344 45.0181 1.72992C45.1232 2.03639 45.1631 2.36143 45.1352 2.6842L43.9969 16.7474C43.9756 17.0117 43.8553 17.2583 43.6598 17.4378C43.4644 17.6174 43.2084 17.7166 42.9428 17.7158ZM36.0282 15.6105H41.9731L43.0271 2.51578C43.0301 2.48365 43.0263 2.45125 43.0159 2.42068C43.0056 2.39011 42.989 2.36203 42.9671 2.33824C42.9453 2.31446 42.9187 2.29549 42.8891 2.28256C42.8595 2.26963 42.8276 2.26301 42.7952 2.26315H35.2061C35.1729 2.2615 35.1397 2.26699 35.1088 2.27925C35.078 2.29151 35.0501 2.31025 35.0271 2.33421C35.0041 2.35817 34.9866 2.38678 34.9756 2.4181C34.9646 2.44943 34.9606 2.48274 34.9636 2.51578L36.0282 15.6105Z"/>
</mask>
<path d="M42.9428 17.7158H35.0585C34.7929 17.7166 34.5369 17.6174 34.3415 17.4378C34.146 17.2583 34.0257 17.0117 34.0044 16.7474L32.8661 2.6842C32.8382 2.36143 32.8781 2.03639 32.9832 1.72992C33.0884 1.42344 33.2565 1.14229 33.4768 0.904456C33.6971 0.666627 33.9647 0.47737 34.2625 0.34881C34.5603 0.220249 34.8817 0.155219 35.2061 0.157885H42.7952C43.1196 0.155219 43.441 0.220249 43.7388 0.34881C44.0366 0.47737 44.3042 0.666627 44.5245 0.904456C44.7448 1.14229 44.9129 1.42344 45.0181 1.72992C45.1232 2.03639 45.1631 2.36143 45.1352 2.6842L43.9969 16.7474C43.9756 17.0117 43.8553 17.2583 43.6598 17.4378C43.4644 17.6174 43.2084 17.7166 42.9428 17.7158ZM36.0282 15.6105H41.9731L43.0271 2.51578C43.0301 2.48365 43.0263 2.45125 43.0159 2.42068C43.0056 2.39011 42.989 2.36203 42.9671 2.33824C42.9453 2.31446 42.9187 2.29549 42.8891 2.28256C42.8595 2.26963 42.8276 2.26301 42.7952 2.26315H35.2061C35.1729 2.2615 35.1397 2.26699 35.1088 2.27925C35.078 2.29151 35.0501 2.31025 35.0271 2.33421C35.0041 2.35817 34.9866 2.38678 34.9756 2.4181C34.9646 2.44943 34.9606 2.48274 34.9636 2.51578L36.0282 15.6105Z" fill="#E7CD92"/>
<path d="M42.9428 17.7158L43.0708 -22.284L43.0068 -22.2842H42.9428V17.7158ZM35.0585 17.7158V-22.2842H34.9945L34.9305 -22.284L35.0585 17.7158ZM34.0044 16.7474L73.8759 13.5433L73.875 13.5316L73.874 13.52L34.0044 16.7474ZM32.8661 2.6842L72.7356 -0.54314L72.7268 -0.651936L72.7174 -0.760683L32.8661 2.6842ZM35.2061 0.157885L34.8773 40.1565L35.0417 40.1579H35.2061V0.157885ZM42.7952 0.157885V40.1579H42.9596L43.124 40.1565L42.7952 0.157885ZM45.1352 2.6842L5.28386 -0.760683L5.27446 -0.651936L5.26565 -0.54314L45.1352 2.6842ZM43.9969 16.7474L4.12728 13.52L4.12634 13.5316L4.1254 13.5433L43.9969 16.7474ZM36.0282 15.6105L-3.84024 18.8518L-0.851772 55.6105H36.0282V15.6105ZM41.9731 15.6105V55.6105H78.8827L81.8441 18.8199L41.9731 15.6105ZM43.0271 2.51578L3.19324 -1.1258L3.1735 -0.909811L3.1561 -0.69362L43.0271 2.51578ZM42.7952 2.26315V42.2631H42.878L42.9607 42.2628L42.7952 2.26315ZM35.2061 2.26315L33.2204 42.2138L34.2126 42.2631H35.2061V2.26315ZM34.9636 2.51578L74.8321 -0.725511L74.8138 -0.950353L74.793 -1.17497L34.9636 2.51578ZM42.9428 -22.2842H35.0585V57.7158H42.9428V-22.2842ZM34.9305 -22.284C44.7256 -22.3154 54.1807 -18.654 61.4039 -12.0176L7.27901 46.8933C14.893 53.8887 24.8603 57.7486 35.1865 57.7156L34.9305 -22.284ZM61.4039 -12.0176C68.6286 -5.37992 73.0887 3.74702 73.8759 13.5433L-5.86703 19.9514C-5.03732 30.2764 -0.336498 39.8965 7.27901 46.8933L61.4039 -12.0176ZM73.874 13.52L72.7356 -0.54314L-7.00354 5.91154L-5.86516 19.9747L73.874 13.52ZM72.7174 -0.760683C73.17 4.47422 72.5225 9.74521 70.8173 14.7138L-4.85085 -11.254C-6.76633 -5.67242 -7.49366 0.248638 -6.98533 6.12908L72.7174 -0.760683ZM70.8173 14.7138C69.1123 19.6823 66.3881 24.2364 62.8225 28.0859L4.13114 -26.277C0.124973 -21.9518 -2.93542 -16.8354 -4.85085 -11.254L70.8173 14.7138ZM62.8225 28.0859C59.257 31.9353 54.929 34.9951 50.1174 37.0724L18.4076 -36.3748C13.0005 -34.0403 8.13722 -30.602 4.13114 -26.277L62.8225 28.0859ZM50.1174 37.0724C45.306 39.1497 40.1153 40.1996 34.8773 40.1565L35.5348 -39.8408C29.648 -39.8891 23.8146 -38.7092 18.4076 -36.3748L50.1174 37.0724ZM35.2061 40.1579H42.7952V-39.8421H35.2061V40.1579ZM43.124 40.1565C37.886 40.1996 32.6953 39.1497 27.8839 37.0724L59.5937 -36.3748C54.1867 -38.7092 48.3533 -39.8891 42.4665 -39.8408L43.124 40.1565ZM27.8839 37.0724C23.0723 34.995 18.7442 31.9352 15.1788 28.0859L73.8702 -26.277C69.8641 -30.602 65.0009 -34.0403 59.5937 -36.3748L27.8839 37.0724ZM15.1788 28.0859C11.6133 24.2365 8.88908 19.6824 7.18397 14.7138L82.8521 -11.254C80.9367 -16.8355 77.8762 -21.9519 73.8702 -26.277L15.1788 28.0859ZM7.18397 14.7138C5.47884 9.74521 4.83134 4.47422 5.28386 -0.760683L84.9866 6.12908C85.495 0.248638 84.7676 -5.67242 82.8521 -11.254L7.18397 14.7138ZM5.26565 -0.54314L4.12728 13.52L83.8665 19.9747L85.0048 5.91154L5.26565 -0.54314ZM4.1254 13.5433C4.91263 3.74702 9.37273 -5.37992 16.5974 -12.0176L70.7223 46.8933C78.3378 39.8965 83.0386 30.2764 83.8683 19.9514L4.1254 13.5433ZM16.5974 -12.0176C23.8206 -18.654 33.2757 -22.3154 43.0708 -22.284L42.8148 57.7156C53.141 57.7486 63.1083 53.8887 70.7223 46.8933L16.5974 -12.0176ZM36.0282 55.6105H41.9731V-24.3895H36.0282V55.6105ZM81.8441 18.8199L82.8982 5.72518L3.1561 -0.69362L2.10204 12.4011L81.8441 18.8199ZM82.861 6.15736C83.3719 0.568914 82.7081 -5.06577 80.9109 -10.3843L5.12091 15.2257C3.3444 9.96828 2.68823 4.39838 3.19324 -1.1258L82.861 6.15736ZM80.9109 -10.3843C79.1138 -15.7028 76.2251 -20.5817 72.4351 -24.7106L13.4992 29.3871C9.7529 25.3057 6.89741 20.483 5.12091 15.2257L80.9109 -10.3843ZM72.4351 -24.7106C68.6441 -28.8406 64.0338 -32.1306 58.9016 -34.3726L26.8766 38.9377C21.8037 36.7216 17.2465 33.4696 13.4992 29.3871L72.4351 -24.7106ZM58.9016 -34.3726C53.7694 -36.6146 48.2272 -37.7597 42.6298 -37.7365L42.9607 42.2628C37.4279 42.2857 31.9496 41.1538 26.8766 38.9377L58.9016 -34.3726ZM42.7952 -37.7369H35.2061V42.2631H42.7952V-37.7369ZM37.1917 -37.6875C31.4427 -37.9733 25.6981 -37.0221 20.3461 -34.8968L49.8716 39.4553C44.5814 41.5561 38.903 42.4963 33.2204 42.2138L37.1917 -37.6875ZM20.3461 -34.8968C14.9933 -32.7712 10.1571 -29.5202 6.16626 -25.3615L63.888 30.0299C59.9431 34.1407 55.1627 37.3542 49.8716 39.4553L20.3461 -34.8968ZM6.16626 -25.3615C2.17482 -21.2021 -0.878429 -16.2311 -2.7831 -10.7835L72.7343 15.6197C70.8515 21.0047 67.8334 25.9185 63.888 30.0299L6.16626 -25.3615ZM-2.7831 -10.7835C-4.68676 -5.33865 -5.39865 0.455621 -4.86575 6.20653L74.793 -1.17497C75.3198 4.50986 74.6161 10.2375 72.7343 15.6197L-2.7831 -10.7835ZM-4.90484 5.75707L-3.84024 18.8518L75.8967 12.3692L74.8321 -0.725511L-4.90484 5.75707Z" fill="#E7CD92" mask="url(#path-12-inside-4_2001_13)"/>
</svg>
